<svg width="61" height="60" viewBox="0 0 61 60" fill="none" xmlns="http://www.w3.org/2000/svg">
<path d="M33.5614 19.5922C33.1149 19.5922 32.594 19.5178 32.1475 19.2946C30.5847 18.5504 29.9894 16.6156 30.7336 15.0529L37.3566 1.73244C38.1007 0.169711 40.0356 -0.425617 41.5983 0.318541C43.161 1.0627 43.7564 2.99751 43.0122 4.56024L36.3892 17.8063C35.7939 18.9225 34.6776 19.5922 33.5614 19.5922Z" fill="black"/>
<path d="M13.395 19.5922V26.2896L4.1674 44.8191C3.57207 45.9353 3.27441 47.2004 3.27441 48.4655C3.27441 53.0048 6.92079 56.6512 11.3857 56.6512H48.7425C53.2074 56.6512 56.8538 53.0048 56.8538 48.4655C56.8538 47.2004 56.5561 45.9353 55.9608 44.8191L46.8821 26.2896V19.5922" fill="#FF6C3D"/>
<path d="M48.8167 60H11.46C5.13469 60 0 54.7909 0 48.4655C0 46.6796 0.446494 44.8936 1.19065 43.3308L10.0461 25.4711V19.5178H16.7435V27.0338L7.21833 46.3075C6.92067 46.9772 6.69742 47.7214 6.69742 48.4655C6.69742 51.1445 8.85548 53.3026 11.46 53.3026H48.8167C51.4213 53.3026 53.5794 51.1445 53.5794 48.4655C53.5794 47.7214 53.4305 46.9772 53.0584 46.3075L43.5332 27.1082V19.5922H50.2306V25.5455L59.0861 43.3308C59.9047 44.8936 60.2768 46.6796 60.2768 48.4655C60.2768 54.7909 55.1421 60 48.8167 60Z" fill="#FF6C3D"/>
<path d="M53.5792 19.5922H6.69724C4.98568 19.5922 3.57178 18.1783 3.57178 16.4667C3.57178 14.7552 4.98568 13.3413 6.69724 13.3413H53.6536C55.3652 13.3413 56.7791 14.7552 56.7791 16.4667C56.7047 18.1783 55.3652 19.5922 53.5792 19.5922Z" fill="#FF6C3D"/>
<path d="M30.138 31.7964L25.3754 36.559L21.2081 32.3173C20.9104 32.0197 20.9104 31.5732 21.2081 31.2755L24.9289 27.5547C25.2266 27.257 25.6731 27.257 25.9707 27.5547L30.138 31.7964Z" fill="black"/>
<path d="M39.0686 32.3173L34.8269 36.559L30.1387 31.7964L34.3804 27.5547C34.678 27.257 35.1245 27.257 35.4222 27.5547L39.143 31.2755C39.3662 31.5732 39.3662 32.0197 39.0686 32.3173Z" fill="black"/>
<path d="M30.1382 41.2472L25.8965 45.4889C25.5988 45.7866 25.1523 45.7866 24.8547 45.4889L21.1339 41.7681C20.8362 41.4705 20.8362 41.024 21.1339 40.7263L25.3756 36.4846L30.1382 41.2472Z" fill="black"/>
<path d="M39.0686 41.7681L35.3478 45.4889C35.0501 45.7866 34.6036 45.7866 34.306 45.4889L30.1387 41.2472L34.9013 36.4846L39.143 40.7263C39.3662 41.024 39.3662 41.5449 39.0686 41.7681Z" fill="black"/>
</svg>
