<svg width="60" height="60" viewBox="0 0 60 60" fill="none" xmlns="http://www.w3.org/2000/svg">
<path d="M49.9997 3.33333H40.0738C40.0738 8.88888 35.5552 13.3333 30.0738 13.3333C24.5182 13.3333 20.0738 8.81481 20.0738 3.33333H9.99968C6.29597 3.33333 3.33301 6.29629 3.33301 10V23.3333H13.4071V56.6667H46.7404V23.3333H56.6664V10C56.6664 6.29629 53.7034 3.33333 49.9997 3.33333Z" fill="#FF6C3D"/>
<path d="M50.0741 60H10.0741V26.6667H0V10C0 4.44444 4.51852 0 10 0H23.4074V3.33333C23.4074 7.03704 26.3704 10 30.0741 10C33.7778 10 36.7407 7.03704 36.7407 3.33333V0H50C55.5556 0 60 4.51852 60 10V26.6667H50.0741V60ZM16.7407 53.3333H43.4074V20H53.3333V10C53.3333 8.14815 51.8519 6.66667 50 6.66667H42.963C41.4815 12.4444 36.2222 16.6667 30.0741 16.6667C23.9259 16.6667 18.6667 12.4444 17.1852 6.66667H10C8.14815 6.66667 6.66667 8.14815 6.66667 10V20H16.7407V53.3333Z" fill="#FF6C3D"/>
<path d="M42.9614 0H36.7391V3.11111C36.7391 6.66667 34.0725 9.77778 30.5169 10C26.6651 10.2222 23.4058 7.18518 23.4058 3.33333V0H17.1836V4.2963C17.1836 6.81481 17.9243 9.25926 19.4058 11.2593C21.8503 14.5185 25.7762 16.6667 30.1466 16.6667C34.5169 16.6667 38.4428 14.5185 40.8873 11.2593C42.3688 9.25926 43.1095 6.81481 43.1095 4.2963V0H42.9614Z" fill="black"/>
<path d="M10.0741 19.9999H0V26.6666H10.0741V19.9999Z" fill="black"/>
<path d="M59.9989 19.9999H49.9248V26.6666H59.9989V19.9999Z" fill="black"/>
</svg>
