<svg width="47" height="60" viewBox="0 0 47 60" fill="none" xmlns="http://www.w3.org/2000/svg">
<path d="M3.40706 23.3333C1.55521 23.3333 0.0737305 21.8519 0.0737305 20V3.33333C0.0737305 1.48148 1.55521 0 3.40706 0C5.25892 0 6.7404 1.48148 6.7404 3.33333V20C6.7404 21.8519 5.25892 23.3333 3.40706 23.3333Z" fill="black"/>
<path d="M16.7406 13.3333C14.8887 13.3333 13.4072 11.8519 13.4072 10V3.33333C13.4072 1.48148 14.8887 0 16.7406 0C18.5924 0 20.0739 1.48148 20.0739 3.33333V10C20.0739 11.8519 18.5924 13.3333 16.7406 13.3333Z" fill="black"/>
<path d="M30.0741 13.3333C28.2222 13.3333 26.7407 11.8519 26.7407 10V3.33333C26.7407 1.48148 28.2222 0 30.0741 0C31.9259 0 33.4074 1.48148 33.4074 3.33333V10C33.4074 11.8519 31.9259 13.3333 30.0741 13.3333Z" fill="black"/>
<path d="M43.4066 23.3333C41.5547 23.3333 40.0732 21.8519 40.0732 20V3.33333C40.0732 1.48148 41.5547 0 43.4066 0C45.2584 0 46.7399 1.48148 46.7399 3.33333V20C46.7399 21.8519 45.2584 23.3333 43.4066 23.3333Z" fill="black"/>
<path d="M43.4066 60C41.5547 60 40.0732 58.5185 40.0732 56.6667V40C40.0732 38.1481 41.5547 36.6667 43.4066 36.6667C45.2584 36.6667 46.7399 38.1481 46.7399 40V56.6667C46.7399 58.5185 45.2584 60 43.4066 60Z" fill="black"/>
<path d="M30.0741 60C28.2222 60 26.7407 58.5185 26.7407 56.6667V50C26.7407 48.1482 28.2222 46.6667 30.0741 46.6667C31.9259 46.6667 33.4074 48.1482 33.4074 50V56.6667C33.4074 58.5185 31.9259 60 30.0741 60Z" fill="black"/>
<path d="M16.7406 60C14.8887 60 13.4072 58.5185 13.4072 56.6667V50C13.4072 48.1482 14.8887 46.6667 16.7406 46.6667C18.5924 46.6667 20.0739 48.1482 20.0739 50V56.6667C20.0739 58.5185 18.5924 60 16.7406 60Z" fill="black"/>
<path d="M3.40706 60C1.55521 60 0.0737305 58.5185 0.0737305 56.6667V43.3333C0.0737305 41.4815 1.55521 40 3.40706 40C5.25892 40 6.7404 41.4815 6.7404 43.3333V56.6667C6.7404 58.5185 5.25892 60 3.40706 60Z" fill="black"/>
<path d="M43.4072 10H3.40723V49.7037C3.40723 49.9259 3.55537 50.0741 3.7776 50.0741H43.1109C43.3331 50.0741 43.4813 49.9259 43.4813 49.7037V10H43.4072Z" fill="#FF6C3D"/>
<path d="M41.7778 53.3333H5.03704C2.2963 53.3333 0 51.1111 0 48.2963V6.66667H46.7407V48.3704C46.7407 51.1111 44.5185 53.3333 41.7778 53.3333ZM6.74074 46.6667H40.0741V13.3333H6.74074V46.6667Z" fill="#FF6C3D"/>
<path d="M26.7404 26.6667H20.0737V20.7407C20.0737 20.2963 20.37 20 20.8145 20H25.9997C26.4441 20 26.7404 20.2963 26.7404 20.7407V26.6667Z" fill="black"/>
<path d="M32.6666 33.3333H26.7407V26.6667H32.6666C33.1111 26.6667 33.4074 26.963 33.4074 27.4074V32.5926C33.4074 33.0371 33.1111 33.3333 32.6666 33.3333Z" fill="black"/>
<path d="M20.0739 33.3333H14.148C13.7035 33.3333 13.4072 33.0371 13.4072 32.5926V27.4074C13.4072 26.963 13.7035 26.6667 14.148 26.6667H20.0739V33.3333Z" fill="black"/>
<path d="M25.9997 40H20.8145C20.37 40 20.0737 39.7037 20.0737 39.2593V33.3333H26.7404V39.2593C26.7404 39.7037 26.4441 40 25.9997 40Z" fill="black"/>
</svg>
