<svg width="57" height="60" viewBox="0 0 57 60" fill="none" xmlns="http://www.w3.org/2000/svg">
<path d="M9.42258 3.11777C12.8868 3.11777 15.6581 5.88914 15.6581 9.35334V9.90761C15.6581 11.5704 15.0346 13.164 13.8568 14.3418L8.72974 19.4688C5.19625 23.0023 3.18701 27.7829 3.18701 32.7714C3.18701 37.7598 5.19625 42.5404 8.72974 46.0739L15.6581 53.0023H25.0115H31.2471H40.6004L47.5981 46.0046C51.1316 42.4711 53.1408 37.6905 53.1408 32.7021C53.1408 27.7136 51.1316 22.933 47.5981 19.3995L42.4711 14.2725C41.2933 13.0947 40.6697 11.5011 40.6697 9.83833V9.35334C40.6697 5.88914 43.4411 3.11777 46.9053 3.11777" fill="#FF6C3D"/>
<path d="M41.9169 56.1201H14.3418L6.44342 48.2217C2.28637 44.0647 0 38.5912 0 32.7021C0 26.8129 2.28637 21.3395 6.44342 17.1824L11.5704 12.0554C12.1247 11.4319 12.4711 10.6697 12.4711 9.83834V9.35335C12.4711 7.62125 11.0855 6.23557 9.35335 6.23557V0C14.5497 0 18.7067 4.22633 18.7067 9.35335V9.90762C18.7067 12.4018 17.7367 14.7575 15.9353 16.5589L10.8083 21.6859C7.8291 24.6651 6.23557 28.6143 6.23557 32.7714C6.23557 36.9977 7.89838 40.9469 10.8083 43.8568L16.836 49.8845H39.2148L45.2425 43.8568C48.2217 40.8776 49.8153 36.9284 49.8153 32.7714C49.8153 28.545 48.1524 24.5958 45.2425 21.6859L40.1155 16.5589C38.3141 14.7575 37.3441 12.4711 37.3441 9.90762V9.35335C37.3441 4.15704 41.5704 0 46.6975 0V6.23557C44.9654 6.23557 43.5797 7.62125 43.5797 9.35335V9.90762C43.5797 10.739 43.9261 11.5012 44.4804 12.1247L49.6074 17.2517C53.7644 21.4088 56.0508 26.8822 56.0508 32.7714C56.0508 38.6605 53.7644 44.134 49.6074 48.291L41.9169 56.1201Z" fill="#FF6C3D"/>
<path d="M33.8802 28.0601L38.3144 32.4943L34.3652 36.3742C34.088 36.6513 33.6723 36.6513 33.3952 36.3742L29.931 32.91C29.6539 32.6328 29.6539 32.2171 29.931 31.94L33.8802 28.0601Z" fill="black"/>
<path d="M21.8935 36.5127L17.9443 32.5635L22.3785 28.1293L26.3277 32.0785C26.6048 32.3556 26.6048 32.7713 26.3277 33.0485L22.8635 36.5127C22.5864 36.7898 22.1707 36.7898 21.8935 36.5127Z" fill="black"/>
<path d="M42.6798 28.0601L46.629 32.0093C46.9061 32.2864 46.9061 32.7021 46.629 32.9792L43.1648 36.4435C42.8876 36.7206 42.4719 36.7206 42.1948 36.4435L38.2456 32.4943L42.6798 28.0601Z" fill="black"/>
<path d="M13.0949 36.5127L9.6307 33.0485C9.35357 32.7713 9.35357 32.3556 9.6307 32.0785L13.5799 28.1293L18.0141 32.5635L14.0649 36.5127C13.7877 36.7898 13.372 36.7898 13.0949 36.5127Z" fill="black"/>
<path d="M49.954 6.23557H28.1295C26.3974 6.23557 25.0117 4.84988 25.0117 3.11778C25.0117 1.38568 26.3974 0 28.1295 0H49.954C51.6861 0 53.0718 1.38568 53.0718 3.11778C53.0718 4.84988 51.6861 6.23557 49.954 6.23557Z" fill="black"/>
<path d="M38.8684 60H17.3903C15.7275 60 14.3418 58.6143 14.3418 56.9515C14.3418 55.2887 15.7275 53.903 17.3903 53.903H38.8684C40.5312 53.903 41.9169 55.2887 41.9169 56.9515C41.9169 58.6143 40.5312 60 38.8684 60Z" fill="black"/>
<path d="M28.1288 6.23557H6.30431C4.57221 6.23557 3.18652 4.84988 3.18652 3.11778C3.18652 1.38568 4.57221 0 6.30431 0H28.1288C29.8609 0 31.2466 1.38568 31.2466 3.11778C31.2466 4.84988 29.8609 6.23557 28.1288 6.23557Z" fill="black"/>
</svg>
