<svg width="128" height="208" viewBox="0 0 128 208" fill="none" xmlns="http://www.w3.org/2000/svg">
<path d="M102.232 94.1913C100.463 91.1587 95.8315 90.9902 93.5579 95.2022C92.2947 97.5609 90.8631 98.9088 89.6842 99.667L87.579 96.1289L91.5368 93.9386L78.6527 62.8539C79.3264 62.2642 80.0001 61.6745 80.6737 61.0006C83.7053 57.7152 86.9895 51.7341 85.3895 42.0465C84.8 39.0138 84.4632 36.4024 85.979 34.0437C88.5053 30.0001 87.4105 27.0517 85.4737 25.6196C82.0211 23.0082 77.979 25.2827 75.958 27.5571L74.9475 14.3314C74.779 11.8042 73.8527 9.61394 72.337 8.35033C71.2422 7.42369 69.8107 6.91825 68.2949 7.08673C67.2001 7.17097 66.2738 7.50793 65.5159 8.09761L65.4317 7.25521C65.2633 4.81223 64.2528 2.53774 62.737 1.27414C61.6423 0.347492 60.2107 -0.0737104 58.7791 0.0105301C55.7476 0.263251 53.6423 3.38015 53.2213 6.49704C52.295 5.9916 51.2845 5.82312 50.2739 5.90736C46.2319 6.32856 44.4634 10.2879 44.7161 13.9944L45.1371 20.3125C44.4634 20.0598 43.7056 19.8913 42.9477 19.9755C39.6635 20.3125 37.7266 23.4294 37.9793 27.8941L39.3266 46.9324V47.2694V47.3536C40.0845 56.4516 43.874 61.6745 47.3266 64.6229C47.5792 67.3186 47.6634 78.5226 35.1161 83.6613L33.5161 84.251L22.5688 87.6206L25.853 98.5718L28.9688 98.1506C27.9583 100.172 27.1162 103.542 28.3793 108.007C29.4741 111.882 32.9267 112.387 34.8635 111.461C37.3898 110.197 38.7372 107.586 36.3793 103.879C33.5161 99.4142 34.8635 97.8137 35.6214 97.3082H35.874L36.8845 100.425L38.0635 100.509C38.9898 100.594 39.8319 100.594 40.5898 100.594C57.937 100.594 62.4002 89.3054 62.5686 88.7999C62.9054 87.9575 62.4844 86.9466 61.5581 86.6097C60.716 86.2727 59.7055 86.6939 59.3686 87.6206C59.2002 88.0418 55.2423 97.7294 39.3266 97.224L36.0424 86.8624L36.2109 86.7782C48.0845 81.8922 50.2739 72.1203 50.5266 66.8974C52.1266 67.7398 53.2213 68.0768 53.3055 68.0768C53.3897 68.0768 53.5581 68.0768 53.6423 68.0768C54.4002 68.0768 55.0739 67.5714 55.3265 66.7289C55.495 65.8023 54.9897 64.9599 54.0634 64.7072C53.9792 64.7072 43.5371 61.7588 42.5266 46.5955L41.1793 27.4729C41.1793 27.0517 40.9266 23.4294 43.1161 23.1766C43.2845 23.1766 43.6213 23.1766 43.9582 23.4294C44.7161 24.0191 45.3055 25.6196 45.3898 27.1359L46.2319 38.6769C46.3161 39.6035 47.074 40.2775 48.0003 40.2775C48.9266 40.1932 49.6003 39.435 49.6003 38.5084L48.9266 28.9892L47.8318 13.5732C47.7476 11.8884 48.2529 9.27698 50.3581 9.02426C50.9476 8.94002 51.3687 9.1085 51.7897 9.44546C52.6318 10.1194 53.1371 11.5515 53.3055 13.152L54.5686 31.1795C54.6529 32.1061 55.4107 32.7801 56.2528 32.7801H56.3371C57.2634 32.6958 57.937 31.9377 57.937 31.011L56.2528 7.67641C56.0844 5.5704 57.3476 3.29591 58.7791 3.12743C59.3686 3.04319 59.7897 3.21167 60.2107 3.54863C61.0528 4.22255 61.6423 5.65464 61.7265 7.25521L63.4107 30.5898C63.4949 31.5164 64.2528 32.1904 65.1791 32.1904C66.1054 32.1061 66.7791 31.348 66.7791 30.4213L65.6844 14.9211C65.6844 14.9211 65.6844 14.9211 65.6844 14.8368C65.6002 13.152 66.1054 10.4563 68.2107 10.2879C68.8843 10.2879 69.3896 10.3721 69.8107 10.7933C70.5685 11.4672 71.158 12.8151 71.2422 14.4156L73.1791 42.4677C73.1791 42.5519 73.1791 42.5519 73.1791 42.6362V42.7204C73.1791 42.8047 73.2633 42.8889 73.2633 42.9731C73.4317 43.3943 73.7685 43.6471 74.1896 43.8155C74.1896 43.8155 74.1896 43.8155 74.2738 43.8155C74.358 43.8155 74.4422 43.8998 74.5264 43.8998H74.6106C74.6948 43.8998 74.6948 43.8998 74.779 43.8998H74.8633C74.9475 43.8998 74.9475 43.8998 75.0317 43.8998C75.1159 43.8998 75.1159 43.8998 75.2001 43.8998C75.2843 43.8998 75.2843 43.8998 75.3685 43.8155C75.4527 43.8155 75.4527 43.8155 75.5369 43.7313C75.6211 43.7313 75.6211 43.6471 75.7054 43.6471C75.7896 43.6471 75.7896 43.5628 75.8738 43.5628L75.958 43.4786L76.0422 43.3943L76.1264 43.3101C76.1264 43.2259 76.2106 43.2259 76.2106 43.1416C76.2106 43.0574 76.2948 43.0574 76.2948 42.9731C76.2948 42.8889 76.379 42.8889 76.379 42.8047C76.379 42.7204 76.379 42.7204 76.4632 42.6362C76.4632 42.5519 76.4632 42.5519 76.4632 42.4677C76.4632 42.3835 76.4632 42.3835 76.4632 42.2992C76.4632 42.215 76.4632 42.215 76.4632 42.1307C76.4632 41.3726 76.2948 39.6878 76.2106 38.4242L76.6317 37.5818C76.379 34.2964 76.8843 31.6849 78.1474 30.0844C78.7369 29.3262 81.3474 26.7147 83.4527 28.2311C84.379 28.905 84.2106 30.4213 83.1158 32.1904C80.8422 35.8969 81.6 39.9405 82.1053 42.6362C83.4527 50.976 80.758 55.9462 78.2317 58.7261C77.4738 59.4843 76.7159 60.1582 75.958 60.7479C75.7896 60.8321 75.6211 60.9164 75.5369 61.0848C72.9264 62.8539 70.1475 63.5278 68.1265 63.3593C67.2001 63.2751 66.358 63.949 66.358 64.8757C66.2738 65.8023 66.9475 66.6447 67.8738 66.6447C68.1265 66.6447 68.4633 66.6447 68.7159 66.6447C71.0738 66.6447 73.6001 65.9708 75.958 64.7072L84.379 85.0091C84.0421 85.683 83.0316 87.4521 79.7474 88.126C78.8211 88.2945 78.2317 89.2211 78.4001 90.1478C78.5685 90.9059 79.2422 91.4956 80.0843 91.4956C80.1685 91.4956 80.3369 91.4956 80.4211 91.4956C83.0316 90.9902 84.8 89.8108 85.8948 88.7157L87.4105 92.4223L86.0632 93.1804L78.7369 97.3082L78.0632 97.7294L59.7055 73.4682C59.116 72.71 58.1055 72.5415 57.3476 73.1312C56.5897 73.7209 56.4213 74.7318 57.0107 75.4899L74.8633 99.33L84.2948 111.966L93.8947 106.659L92.5474 104.384C94.6526 104.047 97.1789 103.289 99.3684 101.773C103.158 99.0773 103.158 95.7919 102.232 94.1913Z" fill="#FF5C39"/>
<path d="M54.9054 84.6724C54.9054 86.1045 53.8949 87.0311 52.9686 87.1996C52.0423 87.3681 51.4528 88.2105 51.6212 89.1371C51.7896 89.9795 52.4633 90.485 53.3054 90.485C53.3896 90.485 53.4738 90.485 53.6422 90.485C56.0001 90.0638 58.4422 87.8735 58.358 84.5881C58.358 83.6615 57.6001 82.9033 56.6738 82.9033C55.6633 82.9876 54.9054 83.7457 54.9054 84.6724Z" fill="#FF5C39"/>
<path d="M56.0004 38.2563C54.9899 38.5091 54.4004 39.9411 54.6531 41.4575C54.9057 42.9738 55.9162 43.9004 56.9267 43.6477C57.9373 43.395 58.5267 41.9629 58.2741 40.4466C57.9373 38.9303 56.9267 37.9194 56.0004 38.2563Z" fill="#FF5C39"/>
<path d="M69.2209 43.5626C70.2315 43.3099 70.821 41.8778 70.5683 40.3615C70.3157 38.8452 69.3052 37.9185 68.2946 38.1713C67.2841 38.424 66.6946 39.8561 66.9473 41.3724C67.1999 42.8887 68.2104 43.8154 69.2209 43.5626Z" fill="#FF5C39"/>
<path d="M58.6949 51.9029C58.7791 52.7453 59.537 53.4192 60.379 53.4192C60.4633 53.4192 60.4633 53.4192 60.5475 53.4192L66.6106 52.8295L64.5053 43.3946C64.3369 42.4679 63.4106 41.8782 62.4843 42.131C61.558 42.2994 60.9685 43.2261 61.2211 44.1527L62.4843 49.8811L60.2106 50.1338C59.2843 50.1338 58.6106 50.9762 58.6949 51.9029Z" fill="#FF5C39"/>
<path d="M57.4324 58.0516C56.9271 58.894 57.264 59.9049 58.0219 60.3261C59.5376 61.2527 61.3061 61.6739 62.9903 61.6739C66.3586 61.6739 69.5586 59.9891 71.4112 56.8722C71.9165 56.0298 71.5797 55.019 70.8218 54.5978C69.9797 54.0923 68.9692 54.4293 68.5481 55.1874C66.7797 58.2201 62.8218 59.231 59.7903 57.4619C58.9482 56.9565 57.9376 57.2934 57.4324 58.0516Z" fill="#FF5C39"/>
<path d="M64.8426 204.631H60.6321V191.152H57.2637V208H64.8426C65.7689 208 66.5268 207.242 66.5268 206.316C66.5268 205.389 65.7689 204.631 64.8426 204.631Z" fill="#FF5C39"/>
<path d="M25.2642 193.848C24.1695 193.848 23.0748 193.427 22.2327 192.753C21.3064 191.911 20.7169 190.815 20.6327 189.552C20.5485 188.288 20.9695 187.109 21.7274 186.182C22.3169 185.508 23.4116 185.424 24.0853 186.014C24.759 186.603 24.8432 187.699 24.2537 188.372C24.0011 188.625 23.9169 188.962 23.9169 189.299C23.9169 189.636 24.0853 189.973 24.3379 190.142C24.5906 190.394 24.9274 190.478 25.2642 190.478C25.6011 190.478 25.9379 190.31 26.1063 190.057L26.78 189.299C27.0327 189.046 27.1169 188.709 27.1169 188.372C27.1169 188.036 26.9484 187.699 26.6958 187.53C25.7695 186.688 25.18 185.593 25.0958 184.329C25.0116 183.065 25.4327 181.886 26.1906 180.959L26.8642 180.201C28.5484 178.264 31.4958 178.011 33.4326 179.696C34.3589 180.538 34.9484 181.633 35.0326 182.897C35.1168 184.16 34.6958 185.34 33.9379 186.266C33.3484 186.94 32.2537 187.025 31.58 186.435C30.9063 185.845 30.8221 184.75 31.4116 184.076C31.6642 183.823 31.7484 183.487 31.7484 183.15C31.7484 182.813 31.58 182.476 31.3274 182.307C30.8221 181.886 29.98 181.886 29.559 182.476L28.8853 183.234C28.6326 183.487 28.5484 183.823 28.5484 184.16C28.5484 184.497 28.7169 184.834 28.9695 185.003C29.8958 185.845 30.4853 186.94 30.5695 188.204C30.6537 189.468 30.2326 190.647 29.4747 191.574L28.8011 192.332C27.959 193.258 26.8642 193.848 25.6011 193.932C25.5169 193.848 25.3485 193.848 25.2642 193.848Z" fill="#FF5C39"/>
<path d="M105.768 191.068L96.8413 178.517L94.0624 180.454L96.5887 189.889L88.5045 184.413L85.7256 186.351L94.6518 198.903C94.9887 199.324 95.4939 199.577 95.9992 199.577C96.336 199.577 96.6729 199.492 97.0097 199.24C97.7676 198.734 97.936 197.639 97.4308 196.881L94.1466 192.332L98.1887 195.112L100.968 193.174L99.7044 188.457L102.989 193.006C103.494 193.764 104.589 193.933 105.346 193.427C106.104 192.837 106.273 191.827 105.768 191.068Z" fill="#FF5C39"/>
<path d="M85.8107 202.441L78.1476 189.047L74.5266 190.058L74.6108 205.474C74.6108 206.4 75.3687 207.159 76.295 207.159C77.2213 207.159 77.9792 206.4 77.9792 205.474V203.957L82.1897 202.778L82.9476 204.126C83.4529 204.968 84.4634 205.221 85.2213 204.716C85.9792 204.294 86.2318 203.284 85.8107 202.441ZM77.895 200.419V195.365L80.4213 199.745L77.895 200.419Z" fill="#FF5C39"/>
<path d="M44.9689 187.193L35.79 199.661C35.2005 200.419 35.369 201.43 36.1269 202.02C36.8847 202.609 37.8953 202.441 38.4847 201.683L39.411 200.419L43.4531 202.02L43.2847 203.536C43.2005 204.463 43.8742 205.305 44.8005 205.389C44.8847 205.389 44.9689 205.389 44.9689 205.389C45.811 205.389 46.5689 204.715 46.6531 203.873L48.4215 188.541L44.9689 187.193ZM43.9584 198.566L41.5163 197.639L44.5479 193.511L43.9584 198.566Z" fill="#FF5C39"/>
<path d="M117.895 143.894V156.53C117.895 157.962 116.8 159.057 115.369 159.057C113.937 159.057 112.842 157.962 112.842 156.53V128.73H102.737V156.53C102.737 163.522 108.379 169.166 115.369 169.166C122.358 169.166 128 163.522 128 156.53V143.894H117.895Z" fill="#FF5C39"/>
<path d="M89.2626 156.53C89.2626 157.962 88.1679 159.057 86.7363 159.057C85.3047 159.057 84.21 157.962 84.21 156.53V143.894H74.1048V156.53C74.1048 157.962 73.0101 159.057 71.5785 159.057C70.1469 159.057 69.0522 157.962 69.0522 156.53V143.894H58.947V150.043C58.5259 148.864 57.9365 147.685 57.1786 146.674L51.6207 138.755L56.5891 131.679L48.3365 125.866L45.4734 129.91L40.5892 122.918L32.3366 128.731L39.3261 138.755L33.7682 146.674C32.6735 148.274 31.8314 150.128 31.4945 151.981C29.8945 146.337 24.6735 142.209 18.5262 142.209C11.1157 142.209 5.0526 148.274 5.0526 155.687C5.0526 157.625 5.47365 159.478 6.23154 161.163C2.5263 163.606 0 167.818 0 172.536V175.905H10.1052V172.536C10.1052 170.682 11.621 169.166 13.4736 169.166H18.5262C24.9262 169.166 30.3156 164.617 31.663 158.636C33.3472 164.701 38.905 169.166 45.4734 169.166C51.9576 169.166 57.4312 164.87 59.1996 158.973C60.2944 164.785 65.4312 169.166 71.5785 169.166C74.4416 169.166 77.0521 168.239 79.1574 166.639C81.2626 168.239 83.8732 169.166 86.7363 169.166C93.7257 169.166 99.3678 163.522 99.3678 156.53V143.894H89.2626V156.53ZM18.5262 159.057C16.6736 159.057 15.1578 157.541 15.1578 155.687C15.1578 153.834 16.6736 152.318 18.5262 152.318C20.3788 152.318 21.8946 153.834 21.8946 155.687C21.8946 157.541 20.3788 159.057 18.5262 159.057ZM45.4734 159.057C43.1997 159.057 41.2629 157.12 41.2629 154.845C41.2629 154.003 41.5155 153.16 42.0208 152.402L45.4734 147.516L48.926 152.402C49.4313 153.076 49.6839 153.918 49.6839 154.845C49.6839 157.204 47.7471 159.057 45.4734 159.057Z" fill="#FF5C39"/>
<path d="M115.368 172.619C113.516 172.619 112 174.135 112 175.989C112 177.842 113.516 179.358 115.368 179.358C117.221 179.358 118.737 177.842 118.737 175.989C118.737 174.135 117.221 172.619 115.368 172.619Z" fill="#FF5C39"/>
</svg>
