<svg width="60" height="60" viewBox="0 0 60 60" fill="none" xmlns="http://www.w3.org/2000/svg">
<path d="M27.5 42.5C37.165 42.5 45 34.665 45 25C45 15.335 37.165 7.5 27.5 7.5C17.835 7.5 10 15.335 10 25C10 34.665 17.835 42.5 27.5 42.5Z" fill="#FF8361"/>
<path d="M42.5 25H17.5V52.5H35C39.25 52.5 42.5 49.25 42.5 45V25Z" fill="#FF8361"/>
<path d="M45 25L48.75 34C49.5 35.75 48.25 37.5 46.5 37.5H40L45 25Z" fill="#FF8361"/>
<path d="M27.5 40C22 40 17.5 35.5 17.5 30C17.5 24.5 22 20 27.5 20C33 20 37.5 24.5 37.5 30C37.5 35.5 33 40 27.5 40ZM27.5 25C24.75 25 22.5 27.25 22.5 30C22.5 32.75 24.75 35 27.5 35C30.25 35 32.5 32.75 32.5 30C32.5 27.25 30.25 25 27.5 25Z" fill="#333333"/>
<path d="M27.5 25C26 25 25 24 25 22.5V7.5C25 6 26 5 27.5 5C29 5 30 6 30 7.5V22.5C30 24 29 25 27.5 25Z" fill="#333333"/>
<path d="M45 50C44.25 50 43.75 49.75 43.25 49.25L32 38C31 37 31 35.5 32 34.5C33 33.5 34.5 33.5 35.5 34.5L46.75 45.75C47.75 46.75 47.75 48.25 46.75 49.25C46.25 49.75 45.75 50 45 50Z" fill="#333333"/>
</svg>
