<svg width="50" height="58" viewBox="0 0 50 58" fill="none" xmlns="http://www.w3.org/2000/svg">
<path d="M29.5654 20.6627C29.5654 17.8211 28.7212 15.0433 27.1395 12.6805C25.5579 10.3178 23.3098 8.47629 20.6796 7.38884C18.0495 6.30139 15.1553 6.01687 12.3631 6.57124C9.5709 7.12562 7.00611 8.49399 4.99305 10.5033C2.98 12.5127 1.60909 15.0727 1.05369 17.8598C0.498284 20.6468 0.783336 23.5356 1.87279 26.161C2.96225 28.7863 4.80719 31.0302 7.17429 32.6089C9.54139 34.1877 12.3244 35.0303 15.1712 35.0303C18.9888 35.0303 22.65 33.5166 25.3494 30.8221C28.0489 28.1277 29.5654 24.4733 29.5654 20.6627ZM11.3402 32.4994V29.2778H9.42282V31.6871C8.74737 31.3337 8.10613 30.9187 7.50729 30.4474V29.2925C7.50892 28.6688 7.713 28.0625 8.08896 27.5644C8.46491 27.0662 8.99248 26.7031 9.59259 26.5295L11.6779 25.9364L14.6029 28.1283C14.7688 28.253 14.9709 28.3204 15.1786 28.3204C15.3863 28.3204 15.5884 28.253 15.7544 28.1283L18.6794 25.9364L20.7647 26.5295C21.3651 26.7028 21.8931 27.0657 22.2694 27.5639C22.6457 28.0621 22.8501 28.6686 22.8518 29.2925V30.4474C22.2509 30.9187 21.6085 31.3348 20.9326 31.6908V29.2778H19.0152V32.4994C16.5216 33.312 13.8338 33.312 11.3402 32.4994ZM18.3804 15.3449L17.9541 14.4921C17.8934 14.3705 17.8075 14.2633 17.7021 14.1775C17.5967 14.0917 17.4742 14.0293 17.3427 13.9944C17.2113 13.9596 17.0739 13.9531 16.9397 13.9753C16.8055 13.9976 16.6776 14.0482 16.5645 14.1237L15.1362 15.0723C14.3488 15.5981 13.4225 15.8783 12.4751 15.8772H11.3402C11.3577 14.8755 11.7676 13.9205 12.4821 13.2169C13.1965 12.5132 14.1587 12.1169 15.1623 12.1128C16.166 12.1087 17.1314 12.4972 17.8516 13.195C18.5718 13.8928 18.9895 14.8444 19.0152 15.8459C18.8788 15.8133 18.7513 15.7512 18.6416 15.664C18.5319 15.5768 18.4427 15.4666 18.3804 15.3412V15.3449ZM12.4751 17.7892C13.8008 17.791 15.0971 17.3992 16.1991 16.6638L16.7343 16.3156C17.0356 16.8429 17.4989 17.2594 18.0556 17.5037V18.7397C18.0366 19.489 17.725 20.2012 17.1874 20.7244C16.6498 21.2476 15.9286 21.5405 15.1777 21.5405C14.4268 21.5405 13.7056 21.2476 13.168 20.7244C12.6304 20.2012 12.3188 19.489 12.2998 18.7397V17.7819L12.4751 17.7892ZM15.1786 23.5344C15.5003 23.5348 15.8212 23.5027 16.1364 23.4386V24.4922C16.138 24.6268 16.1684 24.7594 16.2253 24.8814C16.2823 25.0033 16.3645 25.1118 16.4667 25.1996L15.1749 26.1666L13.8832 25.1996C13.9859 25.1122 14.0688 25.0039 14.1261 24.8819C14.1834 24.7598 14.2138 24.627 14.2153 24.4922V23.4386C14.5311 23.5028 14.8526 23.5348 15.1749 23.5344H15.1786ZM2.70924 20.6627C2.70627 18.6601 3.18748 16.6863 4.11202 14.9089C5.03656 13.1316 6.37713 11.6031 8.0199 10.4534C9.66267 9.30369 11.5591 8.56661 13.5483 8.30477C15.5374 8.04293 17.5605 8.26405 19.4457 8.94937C21.3309 9.63469 23.0226 10.764 24.3772 12.2413C25.7318 13.7186 26.7092 15.5004 27.2264 17.4354C27.7437 19.3703 27.7856 21.4013 27.3485 23.3559C26.9114 25.3104 26.0082 27.1308 24.7157 28.6625C24.5925 27.74 24.2034 26.8732 23.5956 26.1674C22.9878 25.4617 22.1877 24.9475 21.2924 24.6875L18.0556 23.7665V22.5508C18.6492 22.1085 19.1314 21.5344 19.4642 20.8739C19.797 20.2133 19.9712 19.4846 19.973 18.7452V17.7874C20.0989 17.7876 20.2237 17.7631 20.3401 17.7151C20.4565 17.6672 20.5623 17.5968 20.6514 17.508C20.7405 17.4192 20.8113 17.3138 20.8595 17.1977C20.9078 17.0816 20.9326 16.9571 20.9326 16.8314V15.8736C20.9463 15.1105 20.8075 14.3525 20.5245 13.6436C20.2414 12.9347 19.8197 12.2892 19.2839 11.7448C18.7482 11.2003 18.1092 10.7679 17.4041 10.4727C16.6991 10.1775 15.9422 10.0255 15.1777 10.0255C14.4132 10.0255 13.6563 10.1775 12.9513 10.4727C12.2462 10.7679 11.6072 11.2003 11.0715 11.7448C10.5357 12.2892 10.114 12.9347 9.83093 13.6436C9.54786 14.3525 9.40913 15.1105 9.42282 15.8736V16.8314C9.42282 16.9571 9.44765 17.0816 9.4959 17.1977C9.54414 17.3138 9.61486 17.4192 9.70399 17.508C9.79312 17.5968 9.89892 17.6672 10.0153 17.7151C10.1318 17.7631 10.2565 17.7876 10.3824 17.7874V18.7452C10.3846 19.4853 10.5595 20.2148 10.8933 20.8757C11.227 21.5366 11.7105 22.1107 12.3053 22.5526V23.7665L9.07034 24.6875C8.17518 24.9471 7.37481 25.4606 6.76647 26.1656C6.15812 26.8706 5.76797 27.7367 5.64343 28.6588C3.74999 26.423 2.71054 23.5903 2.70924 20.6627Z" fill="#FF5C39"/>
<path d="M7.50677 19.7048H5.58618V21.6187H7.50677V19.7048Z" fill="#FF5C39"/>
<path d="M24.7688 19.7048H22.8501V21.6187H24.7688V19.7048Z" fill="#FF5C39"/>
<path d="M11.3402 49.3831V35.9807H9.42285V49.3831C9.42261 49.7608 9.49703 50.1349 9.64185 50.4839C9.78667 50.8328 9.99904 51.1499 10.2668 51.4168C10.5346 51.6837 10.8525 51.8953 11.2023 52.0394C11.5521 52.1835 11.9269 52.2573 12.3054 52.2566H28.6114V50.3409H12.3054C12.1794 50.3409 12.0546 50.3161 11.9381 50.268C11.8217 50.2199 11.7159 50.1493 11.6268 50.0604C11.5377 49.9714 11.467 49.8658 11.4188 49.7496C11.3706 49.6334 11.3458 49.5089 11.3458 49.3831H11.3402Z" fill="#FF5C39"/>
<path d="M46.8292 0.557378H12.3054C11.9271 0.556652 11.5524 0.630394 11.2027 0.774383C10.853 0.918373 10.5352 1.12978 10.2675 1.39651C9.99972 1.66325 9.7873 1.98006 9.64238 2.32883C9.49745 2.6776 9.42285 3.05147 9.42285 3.42905V5.34656H11.3402V3.42905C11.3402 3.17501 11.4413 2.93138 11.6213 2.75175C11.8013 2.57213 12.0453 2.47121 12.2998 2.47121H38.1964V9.17423C38.1964 9.37991 38.2627 9.58013 38.3855 9.74528C38.5083 9.91043 38.6811 10.0317 38.8784 10.0912C39.0756 10.1507 39.2868 10.1453 39.4807 10.0757C39.6746 10.0061 39.8409 9.87599 39.9551 9.70473L41.0752 8.02483L42.1954 9.70104C42.3089 9.87248 42.4747 10.0029 42.6683 10.0728C42.8618 10.1428 43.0728 10.1487 43.27 10.0896C43.4672 10.0304 43.64 9.90947 43.7629 9.7446C43.8858 9.57973 43.9521 9.37972 43.9522 9.17423V2.47121H46.8292C47.0837 2.47121 47.3278 2.57213 47.5077 2.75175C47.6877 2.93138 47.7888 3.17501 47.7888 3.42905V49.3831C47.7888 49.6372 47.6877 49.8808 47.5077 50.0604C47.3278 50.2401 47.0837 50.341 46.8292 50.341H43.9522V52.2566H46.8292C47.2071 52.2566 47.5814 52.1823 47.9306 52.0379C48.2798 51.8934 48.597 51.6818 48.8642 51.4149C49.1313 51.148 49.3432 50.8313 49.4877 50.4826C49.6322 50.134 49.7064 49.7604 49.7062 49.3831V3.42905C49.7062 2.66743 49.4031 1.93701 48.8635 1.39847C48.324 0.859928 47.5922 0.557378 46.8292 0.557378ZM42.0311 6.01521L41.8706 5.77391C41.7778 5.65002 41.6573 5.54944 41.5188 5.48016C41.3802 5.41088 41.2274 5.37481 41.0724 5.37481C40.9175 5.37481 40.7647 5.41088 40.6261 5.48016C40.4875 5.54944 40.3671 5.65002 40.2743 5.77391L40.1138 6.01521V2.47121H42.0311V6.01521Z" fill="#FF5C39"/>
<path d="M40.1155 41.7241V55.3549L36.7734 53.3545C36.624 53.265 36.4531 53.2178 36.2789 53.2178C36.1047 53.2178 35.9337 53.265 35.7843 53.3545L32.4423 55.3549V41.7241H30.5249V57.0422C30.5244 57.2118 30.5691 57.3784 30.6544 57.5251C30.7398 57.6718 30.8626 57.7931 31.0105 57.8767C31.1583 57.9604 31.3257 58.0032 31.4956 58.0009C31.6655 57.9986 31.8317 57.9513 31.9772 57.8637L36.2789 55.2849L40.5805 57.8637C40.726 57.9513 40.8922 57.9986 41.0621 58.0009C41.232 58.0032 41.3995 57.9604 41.5473 57.8767C41.6951 57.7931 41.818 57.6718 41.9033 57.5251C41.9886 57.3784 42.0333 57.2118 42.0328 57.0422V41.7241H40.1155Z" fill="#FF5C39"/>
<path d="M43.9522 13.9597H32.4424V15.8754H43.9522V13.9597Z" fill="#FF5C39"/>
<path d="M43.9522 17.7892H32.4424V19.7049H43.9522V17.7892Z" fill="#FF5C39"/>
<path d="M43.9522 21.6187H32.4424V23.5343H43.9522V21.6187Z" fill="#FF5C39"/>
<path d="M17.0955 40.7681H15.1768V42.6837H17.0955V40.7681Z" fill="#FF5C39"/>
<path d="M20.9322 40.7681H19.0134V42.6837H20.9322V40.7681Z" fill="#FF5C39"/>
<path d="M20.9307 44.5977H15.1768V46.5133H20.9307V44.5977Z" fill="#FF5C39"/>
<path d="M43.7786 39.6169V36.1171C43.7798 35.3334 43.574 34.5632 43.182 33.8841C42.79 33.205 42.2256 32.641 41.5457 32.249L38.51 30.512C37.831 30.1209 37.061 29.915 36.2771 29.915C35.4932 29.915 34.7231 30.1209 34.0441 30.512L31.0103 32.26C30.3304 32.6521 29.766 33.216 29.374 33.8951C28.982 34.5742 28.7762 35.3444 28.7773 36.1282V39.628C28.7765 40.4117 28.9825 41.1817 29.3745 41.8608C29.7664 42.5398 30.3306 43.1038 31.0103 43.4962L34.0441 45.2442C34.7231 45.6353 35.4932 45.8411 36.2771 45.8411C37.061 45.8411 37.831 45.6353 38.51 45.2442L41.5457 43.4759C42.224 43.0844 42.7873 42.5218 43.1792 41.8445C43.5711 41.1672 43.7778 40.3991 43.7786 39.6169Z" fill="white"/>
<path d="M36.2789 47.1395C35.5787 47.1395 34.8908 46.9559 34.284 46.6072L29.6926 43.9603C29.0871 43.6098 28.5842 43.1069 28.2342 42.5019C27.8841 41.8968 27.6992 41.2107 27.6978 40.512V35.2218C27.6994 34.5232 27.8844 33.8372 28.2344 33.2321C28.5844 32.6271 29.0872 32.1242 29.6926 31.7736L34.284 29.1285C34.8909 28.7801 35.5788 28.5967 36.2789 28.5967C36.979 28.5967 37.6669 28.7801 38.2738 29.1285L42.8651 31.7736C43.4708 32.1239 43.9738 32.6268 44.3238 33.2319C44.6739 33.8369 44.8588 34.5231 44.86 35.2218V40.5139C44.859 41.2126 44.6742 41.8989 44.3241 42.504C43.974 43.1091 43.4709 43.6119 42.8651 43.9621L38.2738 46.6072C37.667 46.9559 36.9791 47.1395 36.2789 47.1395ZM36.2789 30.755C35.9583 30.7548 35.6433 30.8387 35.3654 30.9981L30.774 33.6432C30.4951 33.8025 30.263 34.0322 30.101 34.3093C29.9391 34.5863 29.853 34.9011 29.8513 35.2218V40.5139C29.8528 40.8347 29.9388 41.1495 30.1008 41.4266C30.2627 41.7037 30.4949 41.9334 30.774 42.0925L35.3728 44.7394C35.6508 44.8988 35.9657 44.9826 36.2863 44.9826C36.6068 44.9826 36.9218 44.8988 37.1997 44.7394L41.7911 42.0925C42.0685 41.9322 42.2988 41.702 42.4591 41.425C42.6195 41.148 42.7041 40.8338 42.7046 40.5139V35.2218C42.7039 34.902 42.6192 34.5878 42.4589 34.3109C42.2986 34.0339 42.0684 33.8037 41.7911 33.6432L37.1997 30.9981C36.9197 30.8374 36.6019 30.7535 36.2789 30.755Z" fill="#FF5C39"/>
<path d="M40.409 39.2651V36.4763C40.4091 36.1775 40.3303 35.8841 40.1807 35.6254C40.031 35.3667 39.8157 35.1519 39.5564 35.0027L37.1315 33.6046C36.8723 33.4552 36.5783 33.3766 36.2789 33.3766C35.9796 33.3766 35.6856 33.4552 35.4264 33.6046L33.0015 35.0027C32.7422 35.1519 32.5269 35.3667 32.3772 35.6254C32.2275 35.8841 32.1488 36.1775 32.1489 36.4763V39.2706C32.149 39.5693 32.2278 39.8627 32.3775 40.1214C32.5271 40.38 32.7423 40.5948 33.0015 40.7442L35.4264 42.1404C35.6853 42.2907 35.9794 42.3699 36.2789 42.3699C36.5785 42.3699 36.8726 42.2907 37.1315 42.1404L39.5564 40.7442C39.8164 40.5944 40.0321 40.3787 40.1818 40.119C40.3315 39.8593 40.4099 39.5647 40.409 39.2651Z" fill="white"/>
<path d="M36.279 43.5367C35.8942 43.537 35.5161 43.4359 35.1829 43.2438L32.1638 41.5031C31.8309 41.3106 31.5544 41.0342 31.362 40.7016C31.1696 40.369 31.0681 39.9918 31.0676 39.6077V36.1282C31.0679 35.7443 31.1693 35.3673 31.3617 35.0349C31.5541 34.7026 31.8307 34.4266 32.1638 34.2346L35.1884 32.4939C35.5217 32.3021 35.8998 32.201 36.2846 32.201C36.6694 32.201 37.0474 32.3021 37.3807 32.4939L40.3998 34.2328C40.7328 34.4253 41.0092 34.7017 41.2016 35.0343C41.394 35.3669 41.4955 35.7441 41.496 36.1282V39.6077C41.4955 39.9918 41.394 40.369 41.2016 40.7016C41.0092 41.0342 40.7328 41.3106 40.3998 41.5031L37.3807 43.2438C37.0459 43.4369 36.6658 43.5379 36.279 43.5367ZM36.279 34.3599C36.2743 34.358 36.269 34.358 36.2643 34.3599L33.2452 36.1079C33.2407 36.1105 33.2369 36.1143 33.2343 36.1188C33.2317 36.1234 33.2304 36.1285 33.2304 36.1337V39.6077C33.2302 39.613 33.2314 39.6182 33.2341 39.6228C33.2367 39.6273 33.2405 39.6311 33.2452 39.6335L36.2643 41.3742C36.2687 41.377 36.2738 41.3784 36.279 41.3784C36.2843 41.3784 36.2894 41.377 36.2938 41.3742L39.3129 39.6335C39.3174 39.6309 39.3212 39.6271 39.3238 39.6226C39.3264 39.6181 39.3277 39.6129 39.3276 39.6077V36.1282C39.3277 36.123 39.3264 36.1178 39.3238 36.1133C39.3212 36.1088 39.3174 36.105 39.3129 36.1024L36.2957 34.3636C36.2933 34.3618 36.2906 34.3605 36.2878 34.3599C36.2849 34.3593 36.2819 34.3593 36.279 34.3599Z" fill="#FF5C39"/>
</svg>
