<svg width="56" height="53" viewBox="0 0 56 53" fill="none" xmlns="http://www.w3.org/2000/svg">
<path d="M51.0694 24.4126H29.9625V26.2845H51.0694C51.7995 26.2845 52.4998 26.5804 53.0161 27.107C53.5324 27.6336 53.8224 28.3478 53.8224 29.0925V47.812C53.8224 48.5567 53.5324 49.2709 53.0161 49.7975C52.4998 50.3241 51.7995 50.6199 51.0694 50.6199H18.0325C17.3024 50.6199 16.6021 50.3241 16.0858 49.7975C15.5695 49.2709 15.2795 48.5567 15.2795 47.812V41.2602H13.4441V47.8081C13.4441 49.0493 13.9275 50.2396 14.788 51.1173C15.6485 51.9949 16.8156 52.488 18.0325 52.488H51.0694C52.2863 52.488 53.4534 51.9949 54.3139 51.1173C55.1744 50.2396 55.6578 49.0493 55.6578 47.8081V29.0886C55.6578 27.8474 55.1744 26.657 54.3139 25.7794C53.4534 24.9017 52.2863 24.4087 51.0694 24.4087V24.4126Z" fill="#FF5C39"/>
<path d="M50.1482 30.9644H48.3125V34.7083H50.1482V30.9644Z" fill="#FF5C39"/>
<path d="M46.4775 30.9644H44.6418V34.7083H46.4775V30.9644Z" fill="#FF5C39"/>
<path d="M42.8105 30.9644H40.9749V34.7083H42.8105V30.9644Z" fill="#FF5C39"/>
<path d="M39.1396 30.9644H37.304V34.7083H39.1396V30.9644Z" fill="#FF5C39"/>
<path d="M31.7979 45.0001H18.9502V46.8721H31.7979V45.0001Z" fill="#FF5C39"/>
<path d="M28.1271 36.5803V15.9888C28.1271 15.7405 28.0304 15.5025 27.8583 15.3269C27.6862 15.1514 27.4528 15.0528 27.2094 15.0528H25.3741V8.50094C25.371 6.26776 24.4999 4.12694 22.9516 2.54784C21.4034 0.968742 19.3044 0.0802436 17.1149 0.0771484L11.6087 0.0771484C9.41886 0.0792136 7.31928 0.967381 5.77081 2.5467C4.22235 4.12602 3.35154 6.26745 3.34951 8.50094V15.0528H1.51413C1.39348 15.0523 1.27392 15.0761 1.16235 15.123C1.05078 15.1698 0.949417 15.2388 0.864101 15.3258C0.778784 15.4128 0.711207 15.5162 0.665268 15.63C0.619329 15.7438 0.595938 15.8657 0.596444 15.9888V36.5803C0.596444 37.325 0.886498 38.0392 1.4028 38.5658C1.9191 39.0924 2.61935 39.3882 3.34951 39.3882H25.3741C26.1039 39.3872 26.8036 39.091 27.3197 38.5646C27.8357 38.0383 28.1261 37.3246 28.1271 36.5803ZM5.18489 8.50094C5.18691 6.76392 5.86436 5.09863 7.06862 3.87037C8.27288 2.64211 9.90563 1.95117 11.6087 1.9491H17.1149C18.8179 1.95117 20.4507 2.64211 21.6549 3.87037C22.8592 5.09863 23.5367 6.76392 23.5387 8.50094V15.0528H5.18489V8.50094ZM2.43182 36.5803V16.9247H26.2917V36.5803C26.2907 36.8282 26.1937 37.0657 26.0219 37.241C25.85 37.4163 25.6171 37.5152 25.3741 37.5162H3.34951C3.10613 37.5162 2.87271 37.4176 2.70061 37.2421C2.52851 37.0666 2.43182 36.8285 2.43182 36.5803Z" fill="#FF5C39"/>
<path d="M14.3617 23.4765C13.7036 23.4615 13.0622 23.6882 12.5542 24.1152C12.0463 24.5422 11.7056 25.1411 11.5944 25.8028C11.4832 26.4646 11.6088 27.145 11.9483 27.7202C12.2878 28.2954 12.8186 28.727 13.444 28.9364V32.8363H15.2794V28.9364C15.9048 28.727 16.4356 28.2954 16.7751 27.7202C17.1146 27.145 17.2402 26.4646 17.129 25.8028C17.0178 25.1411 16.6772 24.5422 16.1692 24.1152C15.6613 23.6882 15.0198 23.4615 14.3617 23.4765ZM14.3617 27.2204C14.1802 27.2204 14.0028 27.1655 13.8519 27.0627C13.701 26.9599 13.5833 26.8137 13.5139 26.6426C13.4444 26.4716 13.4262 26.2834 13.4617 26.1019C13.4971 25.9203 13.5845 25.7535 13.7128 25.6226C13.8411 25.4917 14.0047 25.4026 14.1827 25.3665C14.3607 25.3304 14.5452 25.3489 14.7129 25.4197C14.8806 25.4906 15.0239 25.6105 15.1247 25.7645C15.2256 25.9184 15.2794 26.0993 15.2794 26.2845C15.2794 26.4074 15.2557 26.5291 15.2095 26.6426C15.1634 26.7562 15.0958 26.8594 15.0106 26.9463C14.9254 27.0332 14.8242 27.1022 14.7129 27.1492C14.6016 27.1962 14.4822 27.2204 14.3617 27.2204Z" fill="#FF5C39"/>
<path d="M41.4413 22.5406H43.2767V12.1668C43.2767 11.9186 43.18 11.6805 43.0079 11.505C42.8358 11.3294 42.6024 11.2308 42.359 11.2308H27.2095V13.1028H41.4413V22.5406Z" fill="#FF5C39"/>
<path d="M6.10272 41.2601H4.26734V48.744C4.26684 48.8671 4.29023 48.989 4.33617 49.1028C4.38211 49.2166 4.44968 49.32 4.535 49.407C4.62031 49.494 4.72168 49.563 4.83325 49.6098C4.94482 49.6567 5.06438 49.6805 5.18503 49.68H11.6089V47.8081H6.10272V41.2601Z" fill="#FF5C39"/>
<path d="M37.8737 20.0057H39.7091V15.7158C39.7091 15.4675 39.6124 15.2295 39.4403 15.0539C39.2682 14.8784 39.0348 14.7798 38.7914 14.7798H34.895V16.6517H37.8737V20.0057Z" fill="#FF5C39"/>
<path d="M43.6323 48.0459C43.2177 48.0473 42.8101 47.9369 42.4507 47.7262L40.3095 46.4665C39.9506 46.2538 39.6526 45.9488 39.4453 45.5821C39.238 45.2153 39.1286 44.7995 39.1279 44.3761V41.8529C39.1286 41.4296 39.238 41.0138 39.4453 40.647C39.6526 40.2802 39.9506 39.9753 40.3095 39.7626L42.4507 38.5029C42.8109 38.2922 43.2189 38.1813 43.6342 38.1813C44.0494 38.1813 44.4574 38.2922 44.8176 38.5029L46.955 39.7626C47.3144 39.9751 47.6129 40.2799 47.8209 40.6466C48.0288 41.0133 48.139 41.4292 48.1404 41.8529V44.3761C48.139 44.7998 48.0288 45.2157 47.8209 45.5824C47.6129 45.9492 47.3144 46.254 46.955 46.4665L44.8176 47.7262C44.4566 47.9364 44.048 48.0467 43.6323 48.0459ZM43.6323 40.3241C43.586 40.3233 43.5406 40.3369 43.5022 40.3631L41.361 41.6228C41.3214 41.6461 41.2885 41.6797 41.2657 41.7201C41.2429 41.7605 41.2309 41.8063 41.231 41.8529V44.3761C41.2309 44.4228 41.2429 44.4686 41.2657 44.509C41.2885 44.5494 41.3214 44.5829 41.361 44.6062L43.5022 45.8698C43.5426 45.8927 43.588 45.9047 43.6342 45.9047C43.6803 45.9047 43.7257 45.8927 43.7661 45.8698L45.9035 44.6062C45.9441 44.5837 45.978 44.5505 46.0015 44.51C46.0251 44.4695 46.0375 44.4232 46.0374 44.3761V41.8529C46.0375 41.8058 46.0251 41.7596 46.0015 41.7191C45.978 41.6786 45.9441 41.6453 45.9035 41.6228L43.7661 40.3631C43.7245 40.3426 43.6781 40.3345 43.6323 40.3397V40.3241Z" fill="#FF5C39"/>
<path d="M22.7318 15.0528H21.0111V8.24356C21.0101 7.22197 20.6118 6.24252 19.9035 5.52014C19.1953 4.79777 18.2349 4.39149 17.2333 4.39046H11.4978C10.4961 4.39149 9.53581 4.79777 8.82755 5.52014C8.11929 6.24252 7.72094 7.22197 7.71993 8.24356V15.0528H5.98779V8.24356C5.98982 6.75684 6.56977 5.33161 7.6005 4.28034C8.63123 3.22907 10.0286 2.63756 11.4863 2.6355H17.2218C18.6815 2.63446 20.0818 3.22461 21.115 4.27621C22.1482 5.32781 22.7298 6.75482 22.7318 8.24356V15.0528Z" fill="#FF5C39"/>
</svg>
