<svg width="56" height="62" viewBox="0 0 56 62" fill="none" xmlns="http://www.w3.org/2000/svg">
<path d="M54.844 37.3728C54.347 36.465 53.5392 35.8035 52.5943 35.5307C51.6495 35.2579 50.6429 35.3954 49.7912 35.9138L41.8986 40.8201C41.727 40.3795 41.4796 39.9779 41.1695 39.6364C40.8272 39.2651 40.4199 38.9708 39.9712 38.7705C39.5225 38.5702 39.0414 38.4679 38.5557 38.4697H24.6847C24.5278 38.4691 24.3735 38.5121 24.2366 38.5946L18.1186 42.2621L17.0888 39.2108C17.0054 38.9635 16.8346 38.7618 16.6138 38.6495C16.3929 38.5373 16.1398 38.5236 15.9097 38.6115L7.2113 42.0207C6.98151 42.1101 6.79406 42.2941 6.69013 42.5324C6.58621 42.7706 6.57433 43.0436 6.65709 43.2912L6.9735 44.2293L0.890933 46.6242C0.661141 46.7136 0.473689 46.8976 0.369768 47.1358C0.265848 47.3741 0.253962 47.647 0.336721 47.8947L4.77434 61.0042C4.85778 61.2515 5.02853 61.4532 5.2494 61.5654C5.47026 61.6777 5.72335 61.6913 5.95351 61.6034L12.0459 59.217L12.3623 60.153C12.4457 60.4002 12.6166 60.6018 12.8375 60.7137C13.0585 60.8256 13.3116 60.8387 13.5415 60.7501L22.234 57.343C22.4634 57.2532 22.6505 57.0691 22.7544 56.831C22.8582 56.5929 22.8704 56.3202 22.7882 56.0725L22.5622 55.4118H33.0116C33.1738 55.4125 33.3333 55.3665 33.4734 55.2784L53.4938 42.8254C54.0598 42.4766 54.5291 41.9716 54.8535 41.3622C55.1779 40.7529 55.3456 40.0614 55.3392 39.359C55.337 38.6598 55.1663 37.9733 54.844 37.3664V37.3728ZM6.19131 59.3907L2.40027 48.153L7.61418 46.1075L11.4092 57.343L6.19131 59.3907ZM13.7734 58.5436L8.71474 43.5496L15.666 40.8222L20.7266 55.8057L13.7734 58.5436ZM52.5643 41.0975L32.76 53.4129H21.8861L18.7574 44.1573L24.9244 40.4622H38.5557C38.7982 40.461 39.0385 40.5119 39.2625 40.6119C39.4866 40.7119 39.6899 40.859 39.8606 41.0445C40.0608 41.2605 40.2104 41.5247 40.2969 41.8153C40.3713 42.0174 40.4081 42.2332 40.405 42.4506C40.405 42.979 40.2102 43.4859 39.8634 43.8595C39.5165 44.2332 39.0461 44.4431 38.5557 44.4431H28.3833V46.4357H38.5557C39.458 46.4321 40.3279 46.0729 41.0013 45.4257C41.6747 44.7786 42.105 43.8883 42.2111 42.9228L50.711 37.629C51.1347 37.3832 51.6305 37.3248 52.0935 37.4662C52.5565 37.6075 52.9502 37.9376 53.1912 38.3864C53.4321 38.8352 53.5015 39.3674 53.3844 39.8703C53.2674 40.3733 52.9732 40.8073 52.5643 41.0805V41.0975Z" fill="#FF5C39"/>
<path d="M15.438 11.5688V37.4723H17.2873V11.5688C17.2873 11.3043 17.3848 11.0506 17.5584 10.8635C17.732 10.6765 17.9675 10.5714 18.213 10.5714H39.4793V17.5486C39.48 17.7621 39.5442 17.9697 39.6626 18.1409C39.7809 18.3121 39.9471 18.4379 40.1367 18.4998C40.3264 18.5617 40.5294 18.5563 40.716 18.4846C40.9026 18.4129 41.063 18.2785 41.1734 18.1013L42.2543 16.3522L43.3352 18.0971C43.4447 18.2754 43.6047 18.411 43.7913 18.4838C43.9779 18.5566 44.1813 18.5627 44.3714 18.5011C44.5615 18.4396 44.7281 18.3137 44.8466 18.1422C44.9651 17.9706 45.0292 17.7625 45.0293 17.5486V10.5714H45.953C46.1985 10.5714 46.4339 10.6765 46.6075 10.8635C46.7811 11.0506 46.8787 11.3043 46.8787 11.5688V35.4797H48.728V11.5688C48.728 10.7758 48.4356 10.0153 47.9152 9.45459C47.3948 8.89387 46.689 8.57886 45.953 8.57886H18.213C17.477 8.57886 16.7712 8.89387 16.2508 9.45459C15.7304 10.0153 15.438 10.7758 15.438 11.5688V11.5688ZM43.18 14.258L43.0228 14.0082C42.9337 13.8789 42.8179 13.774 42.6844 13.7017C42.551 13.6294 42.4037 13.5917 42.2543 13.5917C42.105 13.5917 41.9577 13.6294 41.8243 13.7017C41.6908 13.774 41.575 13.8789 41.4859 14.0082L41.3287 14.258V10.5714H43.18V14.258Z" fill="#FF5C39"/>
<path d="M11.7393 7.58355V38.567H13.5886V7.58355C13.5886 7.31904 13.6861 7.06536 13.8597 6.87832C14.0333 6.69128 14.2687 6.58621 14.5142 6.58621H42.2543C42.4998 6.58621 42.7352 6.69128 42.9088 6.87832C43.0824 7.06536 43.1799 7.31904 43.1799 7.58355H45.0293C45.0293 6.79058 44.7369 6.03008 44.2165 5.46936C43.6961 4.90864 42.9903 4.59363 42.2543 4.59363H14.5142C13.7783 4.59363 13.0724 4.90864 12.552 5.46936C12.0316 6.03008 11.7393 6.79058 11.7393 7.58355Z" fill="#FF5C39"/>
<path d="M9.88397 3.59845C9.88397 3.3343 9.98122 3.08094 10.1544 2.89396C10.3276 2.70698 10.5625 2.60166 10.8077 2.6011H38.5556C38.677 2.6011 38.7973 2.62691 38.9095 2.67706C39.0217 2.7272 39.1236 2.8007 39.2094 2.89334C39.2952 2.98598 39.3632 3.09595 39.4095 3.21694C39.4558 3.33793 39.4795 3.46757 39.4793 3.59845H41.3286C41.3286 2.80583 41.0365 2.04566 40.5165 1.485C39.9965 0.924339 39.2912 0.609082 38.5556 0.608521L10.8136 0.608521C10.0779 0.609082 9.37259 0.924339 8.85261 1.485C8.33262 2.04566 8.04053 2.80583 8.04053 3.59845V39.4585H9.88397V3.59845Z" fill="#FF5C39"/>
<path d="M26.5341 13.5614H20.9861V15.554H26.5341V13.5614Z" fill="#FF5C39"/>
<path d="M26.5341 17.5465H20.9861V19.5391H26.5341V17.5465Z" fill="#FF5C39"/>
<path d="M41.3287 25.5167C41.3266 23.1394 40.4493 20.8601 38.8893 19.1789C37.3293 17.4976 35.214 16.5519 33.0076 16.5491C32.7635 16.5519 32.5303 16.6585 32.3587 16.8457C32.1872 17.0329 32.0913 17.2855 32.0918 17.5485V25.5188C32.0918 25.6497 32.1158 25.7793 32.1623 25.9002C32.2088 26.0211 32.2771 26.1309 32.363 26.2233C32.449 26.3158 32.5511 26.389 32.6634 26.4389C32.7757 26.4888 32.896 26.5144 33.0175 26.5141H40.405C40.5264 26.5144 40.6466 26.4888 40.7588 26.4389C40.871 26.389 40.9729 26.3157 41.0587 26.2232C41.1445 26.1307 41.2126 26.0209 41.2589 25.9C41.3052 25.7792 41.3289 25.6496 41.3287 25.5188V25.5167ZM33.9313 24.5194V18.6073C35.3137 18.8241 36.5941 19.5161 37.5821 20.5802C38.5701 21.6443 39.2127 23.0237 39.4145 24.513L33.9313 24.5194Z" fill="#FF5C39"/>
<path d="M30.2327 37.4723C32.4393 37.4695 34.5548 36.5238 36.1151 34.8426C37.6754 33.1614 38.5531 30.8821 38.5557 28.5046C38.5552 28.2405 38.4574 27.9873 38.2839 27.8007C38.1104 27.6142 37.8752 27.5094 37.63 27.5094H31.1584V20.5343C31.1584 20.4034 31.1344 20.2738 31.0879 20.1529C31.0413 20.0321 30.9731 19.9223 30.8871 19.8298C30.8011 19.7374 30.6991 19.6641 30.5868 19.6142C30.4745 19.5643 30.3542 19.5388 30.2327 19.5391C28.0477 19.5752 25.9636 20.5359 24.4303 22.2135C22.897 23.8911 22.0376 26.1512 22.0376 28.5057C22.0376 30.8602 22.897 33.1202 24.4303 34.7979C25.9636 36.4755 28.0477 37.4361 30.2327 37.4723V37.4723ZM29.309 21.6015V28.5046C29.3088 28.6355 29.3325 28.7651 29.3788 28.8861C29.4251 29.0071 29.4931 29.1171 29.5789 29.2097C29.6647 29.3024 29.7666 29.3758 29.8788 29.426C29.991 29.4761 30.1112 29.502 30.2327 29.502H36.6415C36.4698 30.7831 35.9706 31.9875 35.1997 32.9804C34.4289 33.9732 33.4168 34.7154 32.2768 35.1238C31.1367 35.5322 29.9137 35.5907 28.7446 35.2929C27.5754 34.995 26.5063 34.3524 25.6567 33.4371C24.8072 32.5218 24.2109 31.3698 23.9344 30.1101C23.6579 28.8504 23.7123 27.5327 24.0913 26.3043C24.4703 25.076 25.1592 23.9855 26.0806 23.155C27.0021 22.3244 28.12 21.7865 29.309 21.6015V21.6015Z" fill="#FF5C39"/>
</svg>
