<svg width="60" height="60" viewBox="0 0 60 60" fill="none" xmlns="http://www.w3.org/2000/svg">
<path d="M52.5 55H7.5V17.5C7.5 13.25 10.75 10 15 10H45C49.25 10 52.5 13.25 52.5 17.5V55Z" fill="#FF8361"/>
<path d="M20 15C18.5 15 17.5 14 17.5 12.5V7.5C17.5 6 18.5 5 20 5C21.5 5 22.5 6 22.5 7.5V12.5C22.5 14 21.5 15 20 15Z" fill="#333333"/>
<path d="M40 15C38.5 15 37.5 14 37.5 12.5V7.5C37.5 6 38.5 5 40 5C41.5 5 42.5 6 42.5 7.5V12.5C42.5 14 41.5 15 40 15Z" fill="#333333"/>
<path d="M29.9999 49.9998C28.9999 49.9998 28.2499 49.4998 27.7499 48.4998L20.2499 33.4998C19.7499 32.2498 20.2499 30.7498 21.2499 30.2498C22.4999 29.7498 23.9999 30.2498 24.4999 31.2498L29.7499 41.7498L34.9999 31.2498C35.4999 29.9998 36.9999 29.4998 38.2499 30.2498C39.4999 30.7498 39.9999 32.2498 39.2499 33.4998L31.7499 48.4998C31.7499 49.4998 30.9999 49.9998 29.9999 49.9998Z" fill="#333333"/>
<path d="M52.5 20H7.5V25H52.5V20Z" fill="#333333"/>
</svg>
