<svg width="56" height="47" viewBox="0 0 56 47" fill="none" xmlns="http://www.w3.org/2000/svg">
<path d="M19.867 39.3237H18.0305V41.1435H19.867V39.3237Z" fill="#FF5C39"/>
<path d="M45.5616 39.3237H43.7251V41.1435H45.5616V39.3237Z" fill="#FF5C39"/>
<path d="M5.18417 36.594H0.596191V38.4138H5.18417V36.594Z" fill="#FF5C39"/>
<path d="M5.18541 32.9545H2.43262V34.7742H5.18541V32.9545Z" fill="#FF5C39"/>
<path d="M5.18564 29.3149H3.34912V31.1347H5.18564V29.3149Z" fill="#FF5C39"/>
<path d="M55.3855 27.7612L44.0056 16.4699C43.7495 16.2144 43.4448 16.0119 43.1092 15.874C42.7735 15.7362 42.4137 15.6657 42.0504 15.6667H32.4386C32.8245 14.3827 32.7923 13.0106 32.3464 11.7457C31.9005 10.4809 31.0637 9.38765 29.955 8.62166C28.8463 7.85567 27.5222 7.4559 26.1711 7.47924C24.8201 7.50258 23.5108 7.94783 22.4297 8.75165C20.6387 8.22889 18.7291 8.26295 16.9581 8.84923C15.1872 9.43551 13.64 10.5459 12.5249 12.0307C11.7339 11.4336 10.7663 11.112 9.77216 11.1156C8.85544 11.1135 7.95922 11.3845 7.19958 11.8933C6.43993 12.4021 5.85186 13.1254 5.51153 13.9694C5.17121 14.8135 5.0943 15.7394 5.29077 16.6273C5.48725 17.5152 5.94806 18.3241 6.61351 18.9493C5.87993 19.5419 5.28868 20.289 4.88272 21.1365C4.47676 21.984 4.26628 22.9105 4.26658 23.8487C4.26976 25.0886 4.63687 26.3008 5.3231 27.3373C6.00933 28.3739 6.98501 29.1899 8.13107 29.6859C8.00909 29.8379 7.94088 30.0254 7.93697 30.2196V38.4085C7.93673 38.7672 8.00775 39.1224 8.14597 39.4539C8.28418 39.7854 8.48689 40.0866 8.74251 40.3404C8.99813 40.5942 9.30166 40.7956 9.63577 40.9331C9.96988 41.0705 10.328 41.1414 10.6898 41.1416H12.5955C12.7958 42.5251 13.4508 43.8044 14.459 44.7812H0.596191V46.6009H44.6426C46.1859 46.5983 47.6769 46.0454 48.8431 45.0432C50.0094 44.0409 50.7733 42.6561 50.9952 41.1416H52.9045C53.6344 41.1412 54.3344 40.8534 54.8505 40.3416C55.3666 39.8298 55.6568 39.1358 55.6573 38.412V28.4033C55.6569 28.1625 55.5605 27.9317 55.3891 27.7612H55.3855ZM53.8186 29.3149H40.0546V21.1243H46.0984L53.8186 28.7813V29.3149ZM10.8592 29.3149C10.9906 28.945 11.2011 28.6075 11.4762 28.3257C11.7513 28.0438 12.0846 27.8242 12.4532 27.6818C12.8218 27.5394 13.2171 27.4776 13.612 27.5007C14.0069 27.5238 14.3921 27.6311 14.7413 27.8154C15.0422 27.9849 15.3076 28.21 15.523 28.4786C15.4448 28.753 15.3858 29.0324 15.3466 29.3149H10.8592ZM16.5377 26.4611C16.6047 26.3158 16.663 26.1671 16.7141 26.0166L16.8553 26.0691C16.7402 26.1941 16.6319 26.3249 16.5306 26.4611H16.5377ZM17.42 28.615C17.772 27.6929 18.4166 26.9091 19.2567 26.3817C20.0969 25.8543 21.0871 25.6119 22.0782 25.6908C23.0694 25.7698 24.0079 26.1659 24.7523 26.8195C25.4968 27.4732 26.0069 28.3489 26.206 29.3149H17.2065C17.2564 29.0766 17.3255 28.8425 17.4129 28.615H17.42ZM28.2741 21.14C28.9845 21.1833 29.6503 21.4982 30.1312 22.0185C30.6121 22.5387 30.8707 23.2238 30.8524 23.9293C30.8341 24.6349 30.5404 25.3058 30.0331 25.8009C29.5259 26.296 28.8446 26.5766 28.1329 26.5836C27.5924 26.5836 27.0643 26.4227 26.6171 26.1216C26.2095 25.6436 25.734 25.2269 25.2054 24.8845C26.5507 23.9319 27.6135 22.6388 28.2829 21.14H28.2741ZM28.0606 29.3149C28.0171 29 27.9492 28.6888 27.8576 28.3841C27.9494 28.3841 28.0341 28.4033 28.1329 28.4033C29.1288 28.4001 30.096 28.0724 30.8857 27.4707V29.3149H28.0606ZM30.8839 20.2389C30.4101 19.8831 29.8705 19.6228 29.2958 19.4725C29.8833 19.1672 30.4191 18.7728 30.8839 18.3036V20.2389ZM26.2889 9.29583C27.2518 9.29583 28.1904 9.59626 28.9715 10.1546C29.7527 10.7129 30.3369 11.5007 30.6414 12.4066C30.946 13.3124 30.9553 14.2903 30.6682 15.2017C30.3811 16.1131 29.812 16.9119 29.0417 17.4848C29.0387 15.9032 28.62 14.3497 27.8269 12.9775C27.0338 11.6053 25.8937 10.4618 24.519 9.65979C25.0771 9.42397 25.6769 9.30026 26.2836 9.29583H26.2889ZM19.8657 10.2057C21.4381 10.2059 22.9689 10.7067 24.2326 11.6344C25.4964 12.562 26.4264 13.8676 26.8856 15.3588C27.3449 16.8499 27.3091 18.4479 26.7836 19.9174C26.2581 21.3869 25.2707 22.6503 23.9667 23.5215C23.6896 23.7058 23.3987 23.869 23.0967 24.0096C21.5854 23.6707 20.001 23.8975 18.6481 24.6466C17.137 24.4041 15.7412 23.6961 14.6586 22.623C13.576 21.5498 12.8616 20.1659 12.6167 18.6676C12.6167 18.6676 12.5249 17.8102 12.5249 17.4848C12.5282 15.5552 13.3027 13.7057 14.6786 12.3413C16.0546 10.9769 17.9198 10.209 19.8657 10.2057ZM9.77216 12.9354C10.4398 12.9332 11.0843 13.177 11.5809 13.6195C11.002 14.8273 10.7007 16.1475 10.6986 17.4848C10.6986 17.749 10.7127 17.9869 10.7303 18.2127C10.354 18.3502 9.95193 18.4043 9.55228 18.3712C9.15263 18.3381 8.76515 18.2185 8.41708 18.021C8.069 17.8235 7.76879 17.5528 7.53755 17.2279C7.3063 16.903 7.14965 16.5318 7.07858 16.1404C7.00752 15.749 7.02379 15.347 7.12623 14.9625C7.22867 14.578 7.41481 14.2205 7.67155 13.915C7.9283 13.6095 8.24941 13.3635 8.61232 13.1942C8.97523 13.025 9.37112 12.9366 9.77216 12.9354ZM6.10177 23.8539C6.09969 23.0718 6.30254 22.3026 6.69044 21.6217C7.07835 20.9407 7.63802 20.3714 8.31459 19.9694C9.2009 20.2684 10.1588 20.288 11.0568 20.0254C11.6979 22.1894 13.1267 24.0402 15.066 25.2187C14.992 25.4478 14.8999 25.6707 14.7907 25.8854C14.3548 25.7496 13.9012 25.6782 13.4443 25.6737C12.5928 25.6753 11.7586 25.9118 11.0349 26.3568C10.3113 26.8018 9.72679 27.4377 9.34689 28.1933C8.40937 27.9088 7.58843 27.3339 7.00443 26.553C6.42043 25.772 6.10409 24.8261 6.10177 23.8539ZM14.3601 40.2335C14.3601 39.3337 14.6292 38.4541 15.1334 37.706C15.6375 36.9578 16.354 36.3747 17.1924 36.0304C18.0307 35.6861 18.9532 35.596 19.8432 35.7715C20.7332 35.9471 21.5507 36.3803 22.1923 37.0166C22.834 37.6528 23.2709 38.4635 23.448 39.346C23.625 40.2285 23.5341 41.1432 23.1869 41.9745C22.8396 42.8058 22.2516 43.5163 21.4971 44.0162C20.7426 44.5161 19.8555 44.7829 18.9481 44.7829C17.7313 44.7829 16.5643 44.3036 15.7039 43.4504C14.8435 42.5972 14.3601 41.4401 14.3601 40.2335ZM23.4355 44.7829C24.444 43.8055 25.0996 42.5257 25.3007 41.1416H38.2935C38.4946 42.5249 39.1495 43.8039 40.157 44.7812L23.4355 44.7829ZM44.6426 44.7829C43.7352 44.7829 42.8481 44.5161 42.0937 44.0162C41.3392 43.5163 40.7511 42.8058 40.4039 41.9745C40.0566 41.1432 39.9657 40.2285 40.1428 39.346C40.3198 38.4635 40.7568 37.6528 41.3984 37.0166C42.04 36.3803 42.8576 35.9471 43.7475 35.7715C44.6375 35.596 45.56 35.6861 46.3983 36.0304C47.2367 36.3747 47.9532 36.9578 48.4574 37.706C48.9615 38.4541 49.2306 39.3337 49.2306 40.2335C49.2306 41.4401 48.7472 42.5972 47.8868 43.4504C47.0264 44.3036 45.8594 44.7829 44.6426 44.7829ZM52.901 39.3236H50.9917C50.7775 37.8041 50.0165 36.4125 48.8491 35.4054C47.6816 34.3984 46.1864 33.8437 44.6391 33.8437C43.0917 33.8437 41.5965 34.3984 40.4291 35.4054C39.2616 36.4125 38.5007 37.8041 38.2865 39.3236H25.3007C25.0865 37.8041 24.3256 36.4125 23.1581 35.4054C21.9907 34.3984 20.4955 33.8437 18.9481 33.8437C17.4008 33.8437 15.9056 34.3984 14.7381 35.4054C13.5707 36.4125 12.8097 37.8041 12.5955 39.3236H10.6898C10.4464 39.3236 10.213 39.2278 10.0409 39.0571C9.86883 38.8865 9.77216 38.6551 9.77216 38.4137V31.1347H31.7962C32.0396 31.1347 32.273 31.0388 32.4451 30.8682C32.6172 30.6976 32.7138 30.4661 32.7138 30.2248V17.4848H42.0451C42.2912 17.4861 42.5267 17.5843 42.6998 17.7577L44.2597 19.3045H40.0546C39.5679 19.3045 39.1011 19.4962 38.7569 19.8375C38.4128 20.1788 38.2194 20.6416 38.2194 21.1243V29.3149C38.2194 29.7976 38.4128 30.2604 38.7569 30.6017C39.1011 30.943 39.5679 31.1347 40.0546 31.1347H53.8186V38.4137C53.8186 38.6551 53.7219 38.8865 53.5498 39.0571C53.3777 39.2278 53.1443 39.3236 52.901 39.3236Z" fill="#FF5C39"/>
<path d="M39.1369 32.9545H35.4666V34.7742H39.1369V32.9545Z" fill="#FF5C39"/>
<path d="M34.5473 3.83655H19.8657V5.65631H34.5473V3.83655Z" fill="#FF5C39"/>
<path d="M18.0318 3.83655H16.1953V5.65631H18.0318V3.83655Z" fill="#FF5C39"/>
<path d="M30.8768 0.197021H14.3601V2.01678H30.8768V0.197021Z" fill="#FF5C39"/>
<path d="M12.5262 0.197021H10.6897V2.01678H12.5262V0.197021Z" fill="#FF5C39"/>
<path d="M24.5189 18.7639V16.0902C24.5188 15.6869 24.4116 15.2907 24.2081 14.9414C24.0046 14.5922 23.7119 14.3023 23.3596 14.1007L21.025 12.7639C20.6729 12.5619 20.2733 12.4556 19.8665 12.4556C19.4597 12.4556 19.0601 12.5619 18.708 12.7639L16.3717 14.1007C16.0195 14.3023 15.7272 14.5924 15.5239 14.9416C15.3207 15.2909 15.2139 15.687 15.2141 16.0902V18.7639C15.2142 19.167 15.3212 19.563 15.5244 19.9122C15.7276 20.2614 16.0198 20.5515 16.3717 20.7534L18.708 22.0902C19.0601 22.2922 19.4597 22.3985 19.8665 22.3985C20.2733 22.3985 20.6729 22.2922 21.025 22.0902L23.3596 20.7534C23.7118 20.5517 24.0043 20.2617 24.2078 19.9125C24.4113 19.5633 24.5186 19.1672 24.5189 18.7639Z" fill="white"/>
<path d="M19.8657 23.3587C19.289 23.3592 18.7223 23.2089 18.2228 22.923L15.8865 21.5862C15.3876 21.2993 14.9733 20.8877 14.6851 20.3925C14.3968 19.8972 14.2446 19.3356 14.2437 18.7638V16.0901C14.2446 15.5181 14.3968 14.9563 14.6851 14.4607C14.9734 13.9652 15.3876 13.5533 15.8865 13.266L18.2228 11.9292C18.7228 11.6438 19.2896 11.4935 19.8666 11.4935C20.4435 11.4935 21.0103 11.6438 21.5103 11.9292L23.8449 13.266C24.3444 13.5528 24.7592 13.9645 25.0478 14.4602C25.3364 14.9558 25.4887 15.5178 25.4895 16.0901V18.7638C25.4886 19.3358 25.3362 19.8976 25.0476 20.3929C24.7589 20.8882 24.3442 21.2997 23.8449 21.5862L21.5103 22.923C21.0102 23.2089 20.443 23.3591 19.8657 23.3587ZM19.8657 13.4182C19.63 13.4168 19.398 13.4772 19.1934 13.5932L16.857 14.9335C16.6528 15.0513 16.4833 15.22 16.3653 15.4229C16.2474 15.6259 16.1851 15.8559 16.1847 16.0901V18.7638C16.1851 18.998 16.2474 19.2281 16.3653 19.431C16.4833 19.6339 16.6528 19.8027 16.857 19.9204L19.1934 21.2572C19.3981 21.3742 19.6303 21.4358 19.8666 21.4358C20.1029 21.4358 20.335 21.3742 20.5398 21.2572L22.8744 19.9204C23.0791 19.8031 23.2492 19.6346 23.3675 19.4316C23.4858 19.2285 23.5482 18.9982 23.5484 18.7638V16.0901C23.5482 15.8557 23.4858 15.6254 23.3675 15.4224C23.2492 15.2194 23.0791 15.0508 22.8744 14.9335L20.5362 13.5967C20.3322 13.4803 20.1011 13.4187 19.8657 13.4182Z" fill="#FF5C39"/>
</svg>
