<svg width="56" height="43" viewBox="0 0 56 43" fill="none" xmlns="http://www.w3.org/2000/svg">
<path d="M46.0962 34.5276V36.643H48.2144V34.5255L46.0962 34.5276Z" fill="#FF5C39"/>
<path d="M48.1836 7.05762H39.6479V9.17308H48.1836C48.4668 9.17308 48.7384 9.28462 48.9386 9.48318C49.1389 9.68174 49.2514 9.95104 49.2514 10.2318V33.4688C49.2509 33.745 49.1416 34.0101 48.9468 34.2075C48.752 34.4049 48.4871 34.519 48.2087 34.5255V36.643C49.0524 36.6349 49.8588 36.2969 50.4528 35.7026C51.0467 35.1082 51.3801 34.3055 51.3806 33.4688V10.2318C51.3806 9.3907 51.0439 8.58395 50.4445 7.98879C49.8451 7.39362 49.0319 7.05871 48.1836 7.05762Z" fill="#FF5C39"/>
<path d="M8.78149 12.4073H10.9164C10.9164 10.2112 10.9164 10.1926 10.9164 10.176H8.78358C8.78358 10.1926 8.78149 10.2112 8.78149 12.4073Z" fill="#FF5C39"/>
<path d="M11.9827 9.17307H40.7138V7.05762H11.9827C11.1438 7.05803 10.3385 7.38502 9.74022 7.96822C9.14193 8.55142 8.79845 9.34422 8.78369 10.176H10.9213C10.9346 9.90571 11.0523 9.65086 11.2499 9.46418C11.4474 9.2775 11.7098 9.17328 11.9827 9.17307Z" fill="#FF5C39"/>
<path d="M52.4525 2.87217C52.5926 2.87217 52.7314 2.89957 52.8608 2.95281C52.9902 3.00604 53.1078 3.08406 53.2068 3.1824C53.3058 3.28075 53.3842 3.39748 53.4376 3.52592C53.4911 3.65437 53.5184 3.792 53.5182 3.93094V27.17C53.5182 27.4502 53.4059 27.719 53.206 27.9172C53.0062 28.1153 52.7351 28.2267 52.4525 28.2267V30.3442C53.301 30.3431 54.1143 30.0083 54.7141 29.4132C55.3139 28.8181 55.651 28.0113 55.6516 27.17V3.93094C55.6516 3.08944 55.3146 2.28238 54.7147 1.68715C54.1148 1.09193 53.3011 0.757262 52.4525 0.756714L39.6479 0.756714V2.87217H52.4525Z" fill="#FF5C39"/>
<path d="M16.2496 2.87217H40.7138V0.756714H16.2496C15.4074 0.7572 14.5994 1.08675 14.0006 1.67395C13.4017 2.26115 13.0604 3.05868 13.0505 3.89372H15.1944C15.2035 3.62138 15.3184 3.36307 15.515 3.17272C15.7116 2.98236 15.9748 2.87469 16.2496 2.87217Z" fill="#FF5C39"/>
<path d="M13.0483 6.09599H15.1957C15.1957 3.91849 15.1957 3.90608 15.1957 3.89368H13.0504C13.0504 3.90608 13.0483 3.91849 13.0483 6.09599Z" fill="#FF5C39"/>
<path d="M26.6829 35.3279V20.9746C26.6829 20.7262 26.5834 20.4879 26.4062 20.3122C26.2291 20.1365 25.9888 20.0378 25.7382 20.0378H6.85253C6.72857 20.0378 6.60582 20.0621 6.49132 20.1092C6.37683 20.1563 6.27282 20.2253 6.18526 20.3123C6.0977 20.3994 6.02832 20.5026 5.98107 20.6163C5.93382 20.7299 5.90964 20.8517 5.90991 20.9746V35.3279C5.90991 35.5758 6.00923 35.8135 6.186 35.9888C6.36278 36.1641 6.60253 36.2626 6.85253 36.2626H25.732C25.8559 36.2628 25.9787 36.2389 26.0933 36.192C26.2079 36.1452 26.3121 36.0764 26.3998 35.9895C26.4876 35.9027 26.5572 35.7996 26.6047 35.6861C26.6522 35.5725 26.6767 35.4508 26.6767 35.3279H26.6829ZM24.7873 34.3911H7.80349V21.9093H24.7873V34.3911Z" fill="#FF5C39"/>
<path d="M35.3542 34.753C34.8182 34.7505 34.2924 34.6078 33.8297 34.3394L30.7016 32.5486C30.2385 32.2827 29.8538 31.9011 29.5859 31.4417C29.318 30.9823 29.1764 30.4613 29.175 29.9306V26.3614C29.176 25.8305 29.3175 25.309 29.5854 24.8492C29.8533 24.3895 30.2382 24.0075 30.7016 23.7414L33.8297 21.9506C34.2936 21.6865 34.8192 21.5475 35.3542 21.5475C35.8891 21.5475 36.4147 21.6865 36.8786 21.9506L40.0068 23.7414C40.4705 24.0071 40.8556 24.3891 41.1236 24.8489C41.3915 25.3088 41.5328 25.8304 41.5333 26.3614V29.941C41.5329 30.4713 41.392 30.9922 41.1249 31.4516C40.8577 31.911 40.4736 32.2929 40.011 32.5589L36.8828 34.3497C36.418 34.6152 35.8906 34.7543 35.3542 34.753ZM35.3542 23.7931C35.2167 23.7934 35.0816 23.829 34.9621 23.8965L31.834 25.6873C31.7154 25.7557 31.6169 25.8538 31.5485 25.9717C31.48 26.0896 31.444 26.2233 31.444 26.3594V29.9389C31.4444 30.0749 31.4806 30.2084 31.549 30.3263C31.6174 30.4441 31.7156 30.5423 31.834 30.611L34.9621 32.3997C35.0814 32.4677 35.2166 32.5036 35.3542 32.5036C35.4918 32.5036 35.627 32.4677 35.7463 32.3997L38.8744 30.611C38.9933 30.5427 39.092 30.4447 39.1608 30.3268C39.2296 30.2089 39.266 30.0751 39.2665 29.9389V26.3614C39.2664 26.2251 39.2302 26.0912 39.1614 25.9733C39.0925 25.8553 38.9936 25.7573 38.8744 25.6894L35.7463 23.8986C35.6268 23.8311 35.4917 23.7954 35.3542 23.7952V23.7931Z" fill="#FF5C39"/>
<path d="M22.207 23.1379L9.15137 31.4012L10.2308 33.0781L23.2864 24.8148L22.207 23.1379Z" fill="#FF5C39"/>
<path d="M12.5602 27.2547C12.0909 27.2547 11.632 27.1167 11.2417 26.8582C10.8515 26.5996 10.5473 26.232 10.3677 25.802C10.188 25.372 10.141 24.8989 10.2326 24.4424C10.3242 23.9859 10.5502 23.5666 10.8821 23.2375C11.214 22.9084 11.6369 22.6842 12.0972 22.5934C12.5576 22.5026 13.0348 22.5492 13.4684 22.7274C13.9021 22.9055 14.2727 23.2071 14.5335 23.5941C14.7943 23.9811 14.9335 24.4361 14.9335 24.9015C14.9329 25.5254 14.6827 26.1237 14.2377 26.5649C13.7928 27.0061 13.1895 27.2542 12.5602 27.2547ZM12.5602 24.5375C12.4871 24.5375 12.4157 24.5591 12.3549 24.5994C12.2942 24.6397 12.2469 24.697 12.219 24.764C12.1911 24.831 12.184 24.9047 12.1984 24.9757C12.2128 25.0468 12.2481 25.112 12.3 25.1631C12.3518 25.2142 12.4178 25.2489 12.4895 25.2628C12.5612 25.2767 12.6355 25.2691 12.7029 25.2411C12.7704 25.2131 12.8279 25.1659 12.8682 25.1054C12.9085 25.0449 12.9298 24.974 12.9294 24.9015C12.9294 24.8535 12.9198 24.806 12.9012 24.7617C12.8826 24.7174 12.8554 24.6772 12.8211 24.6434C12.7868 24.6096 12.7461 24.5828 12.7013 24.5646C12.6566 24.5465 12.6086 24.5373 12.5602 24.5375Z" fill="#FF5C39"/>
<path d="M19.9345 33.3447C19.4651 33.3447 19.0063 33.2067 18.616 32.9481C18.2257 32.6895 17.9216 32.322 17.7419 31.892C17.5623 31.462 17.5153 30.9888 17.6069 30.5324C17.6985 30.0759 17.9245 29.6566 18.2564 29.3274C18.5883 28.9983 19.0112 28.7742 19.4715 28.6834C19.9319 28.5926 20.4091 28.6392 20.8427 28.8173C21.2764 28.9954 21.647 29.2971 21.9078 29.684C22.1685 30.071 22.3077 30.526 22.3077 30.9915C22.3072 31.6154 22.057 32.2137 21.612 32.6549C21.1671 33.0961 20.5638 33.3442 19.9345 33.3447ZM19.9345 30.6275C19.8613 30.6271 19.7897 30.6483 19.7287 30.6883C19.6676 30.7284 19.62 30.7855 19.5918 30.8525C19.5636 30.9195 19.5561 30.9932 19.5703 31.0644C19.5845 31.1356 19.6197 31.201 19.6714 31.2523C19.7232 31.3036 19.7891 31.3385 19.8609 31.3526C19.9327 31.3667 20.0071 31.3592 20.0746 31.3313C20.1422 31.3033 20.1998 31.2561 20.2402 31.1956C20.2806 31.1351 20.302 31.064 20.3015 30.9915C20.3015 30.8949 20.2629 30.8024 20.194 30.7341C20.1252 30.6658 20.0319 30.6275 19.9345 30.6275Z" fill="#FF5C39"/>
<path d="M2.73106 31.8724H0.596191V34.54H2.73106V31.8724Z" fill="#FF5C39"/>
<path d="M2.73106 26.4711H0.596191V29.1387H2.73106V26.4711Z" fill="#FF5C39"/>
<path d="M2.73106 21.0676H0.596191V23.7352H2.73106V21.0676Z" fill="#FF5C39"/>
<path d="M41.8294 13.3564H3.79733C2.94834 13.3564 2.13411 13.6909 1.53378 14.2862C0.933454 14.8814 0.596191 15.6888 0.596191 16.5307L0.596191 18.3339H2.72959V16.5307C2.72959 16.3917 2.75722 16.2542 2.81091 16.1258C2.86459 15.9975 2.94328 15.8809 3.04245 15.7827C3.14163 15.6846 3.25935 15.6068 3.38888 15.5538C3.51842 15.5008 3.65721 15.4737 3.79733 15.474H41.8294C41.9695 15.4737 42.1083 15.5008 42.2379 15.5538C42.3674 15.6068 42.4851 15.6846 42.5843 15.7827C42.6835 15.8809 42.7621 15.9975 42.8158 16.1258C42.8695 16.2542 42.8971 16.3917 42.8971 16.5307V39.7697C42.8971 40.0505 42.7847 40.3198 42.5844 40.5184C42.3842 40.7169 42.1126 40.8285 41.8294 40.8285H3.77231C3.49576 40.8285 3.23054 40.7195 3.035 40.5256C2.83945 40.3317 2.72959 40.0687 2.72959 39.7945V37.2758H0.596191V41.0808C0.596191 41.5744 0.793935 42.0477 1.14592 42.3968C1.49791 42.7458 1.9753 42.9419 2.47308 42.9419H41.8294C42.6784 42.9419 43.4926 42.6074 44.093 42.0122C44.6933 41.4169 45.0305 40.6095 45.0305 39.7676V16.5307C45.0305 15.6888 44.6933 14.8814 44.093 14.2862C43.4926 13.6909 42.6784 13.3564 41.8294 13.3564Z" fill="#FF5C39"/>
</svg>
