<svg width="60" height="60" viewBox="0 0 60 60" fill="none" xmlns="http://www.w3.org/2000/svg">
<path d="M47.5 42.5H17.5C13.25 42.5 10 39.25 10 35V17.5C10 13.25 13.25 10 17.5 10H47.5C51.75 10 55 13.25 55 17.5V35C55 39.25 51.75 42.5 47.5 42.5Z" fill="#FF8361"/>
<path d="M47.5 37.5H37.5C36 37.5 35 36.5 35 35C35 33.5 36 32.5 37.5 32.5H47.5C49 32.5 50 33.5 50 35C50 36.5 49 37.5 47.5 37.5Z" fill="#333333"/>
<path d="M55 17.5H10V22.5H55V17.5Z" fill="#333333"/>
<path d="M17.5 54.5L16.75 54.25C9.75 52.25 5 45.75 5 38.5V30.25L17.5 25.25L30 30.25V38.5C30 45.75 25.25 52.25 18.25 54.25L17.5 54.5ZM10 33.75V38.75C10 43.5 13 47.75 17.5 49.5C22 47.75 25 43.5 25 38.75V33.75L17.5 30.75L10 33.75Z" fill="#333333"/>
</svg>
