<svg width="56" height="57" viewBox="0 0 56 57" fill="none" xmlns="http://www.w3.org/2000/svg">
<path d="M42.258 56.6295C41.1508 56.6305 40.063 56.342 39.1041 55.7932L32.5706 52.0631C31.6135 51.5129 30.8187 50.7233 30.2656 49.7731C29.7125 48.823 29.4205 47.7456 29.4187 46.6486V39.1649C29.4205 38.0678 29.7125 36.9904 30.2656 36.0403C30.8187 35.0902 31.6135 34.3006 32.5706 33.7504L39.1041 30.0203C40.0632 29.4728 41.1504 29.1847 42.257 29.1847C43.3636 29.1847 44.4509 29.4728 45.4099 30.0203L51.9434 33.7504C52.9005 34.3006 53.6953 35.0902 54.2484 36.0403C54.8015 36.9904 55.0935 38.0678 55.0953 39.1649V46.6407C55.0935 47.7378 54.8015 48.8152 54.2484 49.7653C53.6953 50.7154 52.9005 51.505 51.9434 52.0552L45.4099 55.7853C44.4524 56.3366 43.3652 56.6278 42.258 56.6295ZM42.258 31.1943C41.5082 31.1938 40.7715 31.3888 40.1217 31.7597L33.5883 35.4898C32.9398 35.8624 32.4013 36.3971 32.0264 37.0406C31.6516 37.6841 31.4535 38.4139 31.452 39.157V46.6329C31.4535 47.376 31.6516 48.1058 32.0264 48.7493C32.4013 49.3928 32.9398 49.9275 33.5883 50.3001L40.1217 54.0302C40.7713 54.4007 41.5076 54.5957 42.257 54.5957C43.0064 54.5957 43.7427 54.4007 44.3923 54.0302L50.9258 50.3001C51.573 49.9282 52.1108 49.3947 52.4856 48.7527C52.8604 48.1107 53.0591 47.3825 53.062 46.6407V39.1649C53.0605 38.4217 52.8624 37.692 52.4876 37.0485C52.1127 36.405 51.5742 35.8702 50.9258 35.4976L44.3923 31.7675C43.744 31.3939 43.0079 31.1962 42.258 31.1943Z" fill="#FF5C39"/>
<path d="M14.1621 27.4231C16.8457 27.4235 19.4691 26.6348 21.7005 25.1567C23.932 23.6786 25.6714 21.5775 26.6986 19.1192C27.7258 16.6609 27.9948 13.9557 27.4715 11.3458C26.9482 8.73589 25.6561 6.33847 23.7587 4.45673C21.8613 2.57499 19.4437 1.29344 16.8118 0.774164C14.1798 0.254887 11.4517 0.521202 8.97233 1.53943C6.49301 2.55766 4.37388 4.28206 2.88293 6.49457C1.39198 8.70708 0.596191 11.3083 0.596191 13.9693C0.596191 17.5371 2.02539 20.9589 4.56943 23.4819C7.11348 26.0049 10.564 27.4226 14.1621 27.4231ZM10.5449 25.0574V22.042H8.73534V24.3016C8.09955 23.969 7.49581 23.5793 6.9317 23.1374V22.0596C6.93252 21.4746 7.12483 20.9057 7.47972 20.4384C7.83461 19.9711 8.33289 19.6306 8.89966 19.4682L10.8657 18.9126L13.6236 20.9642C13.7804 21.0806 13.9711 21.1436 14.167 21.1436C14.363 21.1436 14.5537 21.0806 14.7105 20.9642L17.4625 18.9126L19.4305 19.4702C19.9972 19.6319 20.4957 19.9719 20.8506 20.439C21.2056 20.906 21.3978 21.4748 21.3984 22.0596V23.1414C20.8319 23.5834 20.2263 23.9737 19.5889 24.3075V22.042H17.7813V25.0574C15.4303 25.8192 12.8959 25.8192 10.5449 25.0574ZM17.1833 8.98867L16.7874 8.18965C16.7302 8.07547 16.6492 7.97467 16.5497 7.89398C16.4502 7.81328 16.3345 7.75454 16.2103 7.72166C16.0861 7.68878 15.9562 7.68252 15.8294 7.7033C15.7026 7.72408 15.5817 7.77142 15.4747 7.84216L14.1304 8.73346C13.3874 9.22411 12.5146 9.48573 11.622 9.48536H10.5449C10.5322 9.00726 10.6159 8.53145 10.7913 8.0859C10.9666 7.64034 11.23 7.23404 11.5659 6.89086C11.9019 6.54768 12.3036 6.27456 12.7475 6.08753C13.1915 5.9005 13.6686 5.80335 14.1509 5.80178C14.6333 5.80021 15.111 5.89425 15.5562 6.07838C16.0013 6.26252 16.4049 6.53302 16.7431 6.87401C17.0813 7.21499 17.3474 7.61957 17.5257 8.06397C17.7039 8.50837 17.7908 8.98363 17.7813 9.4618C17.6536 9.43039 17.5343 9.37179 17.4317 9.29009C17.3292 9.20839 17.2458 9.10554 17.1873 8.98867H17.1833ZM11.616 11.2797C12.8653 11.2792 14.0866 10.9124 15.1263 10.2255L15.6232 9.89763C15.9075 10.3961 16.3473 10.7895 16.8765 11.0186V12.1769C16.8574 12.8779 16.5631 13.5438 16.0563 14.033C15.5496 14.5221 14.8703 14.7958 14.1631 14.7958C13.4559 14.7958 12.7766 14.5221 12.2698 14.033C11.7631 13.5438 11.4688 12.8779 11.4497 12.1769V11.2797H11.616ZM14.1621 16.6609C14.466 16.6613 14.7692 16.6311 15.0669 16.5705V17.5521C15.0686 17.6784 15.0974 17.8029 15.1514 17.9173C15.2053 18.0317 15.2831 18.1334 15.3797 18.2157L14.1621 19.1207L12.9465 18.2157C13.0437 18.1348 13.1226 18.0343 13.1779 17.9209C13.2332 17.8076 13.2636 17.6839 13.2672 17.558V16.5764C13.5643 16.6369 13.8668 16.6671 14.17 16.6667L14.1621 16.6609ZM14.1621 2.31184C16.4023 2.30694 18.5972 2.93748 20.4879 4.12907C22.3785 5.32067 23.8861 7.0236 24.8326 9.03697C25.7792 11.0503 26.1252 13.2902 25.83 15.4922C25.5348 17.6942 24.6106 19.7666 23.1664 21.4648C23.0517 20.5996 22.6854 19.7861 22.1124 19.1238C21.5393 18.4614 20.7843 17.9788 19.9393 17.7347L16.8765 16.8788V15.7401C17.4358 15.3259 17.8904 14.7883 18.2041 14.1699C18.5178 13.5515 18.6821 12.8692 18.6841 12.1769V11.2797C18.924 11.2797 19.1542 11.1852 19.3238 11.0169C19.4935 10.8487 19.5889 10.6205 19.5889 10.3825V9.48536C19.5889 8.0582 19.0171 6.68949 17.9994 5.68033C16.9817 4.67117 15.6014 4.10424 14.1621 4.10424C12.7228 4.10424 11.3425 4.67117 10.3248 5.68033C9.30708 6.68949 8.73534 8.0582 8.73534 9.48536V10.3825C8.73586 10.6203 8.83135 10.8482 9.00092 11.0164C9.17049 11.1845 9.40032 11.2792 9.64013 11.2797V12.1769C9.64243 12.8693 9.80712 13.5517 10.1212 14.1701C10.4352 14.7885 10.8901 15.326 11.4497 15.7401V16.8788L8.39876 17.7445C7.5533 17.9884 6.79765 18.4709 6.22393 19.1332C5.65021 19.7955 5.28321 20.6091 5.16766 21.4746C3.72184 19.777 2.7959 17.7047 2.49909 15.5022C2.20228 13.2998 2.54699 11.0591 3.49254 9.04463C4.4381 7.03012 5.94503 5.32583 7.83554 4.13287C9.72605 2.9399 11.9212 2.30804 14.1621 2.31184Z" fill="#FF5C39"/>
<path d="M6.92899 13.074H5.11816V14.8683H6.92899V13.074Z" fill="#FF5C39"/>
<path d="M23.2093 13.074H21.3984V14.8683H23.2093V13.074Z" fill="#FF5C39"/>
<path d="M48.0234 45.771L44.9705 44.9053V43.7666C45.5301 43.3525 45.985 42.815 46.299 42.1966C46.6131 41.5782 46.7778 40.8958 46.7801 40.2034V39.3062C47.0197 39.3057 47.2493 39.2109 47.4186 39.0427C47.5878 38.8745 47.6829 38.6466 47.6829 38.409V37.5119C47.6967 36.7967 47.5665 36.086 47.3 35.4212C47.0335 34.7565 46.6361 34.1512 46.1309 33.6406C45.6257 33.13 45.0229 32.7243 44.3578 32.4475C43.6926 32.1706 42.9785 32.028 42.2571 32.028C41.5357 32.028 40.8216 32.1706 40.1565 32.4475C39.4913 32.7243 38.8885 33.13 38.3833 33.6406C37.8781 34.1512 37.4807 34.7565 37.2142 35.4212C36.9477 36.086 36.8176 36.7967 36.8313 37.5119V38.4071C36.8313 38.6447 36.9264 38.8726 37.0956 39.0408C37.2649 39.209 37.4945 39.3037 37.7341 39.3043V40.2014C37.7364 40.8938 37.9011 41.5762 38.2152 42.1946C38.5293 42.813 38.9841 43.3505 39.5437 43.7646V44.9033L36.4928 45.7691C35.6684 46.0066 34.929 46.4715 34.3608 47.1096C33.7926 47.7478 33.419 48.5329 33.2834 49.3735V52.0807C35.7606 54.2473 38.9501 55.4428 42.2531 55.4428C45.5562 55.4428 48.7457 54.2473 51.2229 52.0807V49.3205C51.0779 48.4913 50.7012 47.7191 50.1356 47.0916C49.57 46.4641 48.8382 46.0066 48.0234 45.771ZM44.9705 40.2034C44.9514 40.9044 44.6571 41.5703 44.1504 42.0594C43.6436 42.5486 42.9643 42.8223 42.2571 42.8223C41.5499 42.8223 40.8706 42.5486 40.3639 42.0594C39.8571 41.5703 39.5628 40.9044 39.5437 40.2034V39.3062H39.71C40.9595 39.3064 42.1809 38.9395 43.2203 38.252L43.7172 37.9241C44.0019 38.4222 44.4416 38.8155 44.9705 39.0451V40.2034ZM43.4737 46.2481L42.2581 47.1531L41.0405 46.2481C41.1371 46.1658 41.2149 46.064 41.2688 45.9496C41.3227 45.8352 41.3515 45.7108 41.3533 45.5845V44.6029C41.9497 44.7233 42.5645 44.7233 43.1609 44.6029V45.5845C43.1627 45.7108 43.1915 45.8352 43.2454 45.9496C43.2993 46.064 43.3772 46.1658 43.4737 46.2481ZM38.6389 37.5119C38.6577 36.5746 39.0456 35.6819 39.7196 35.0246C40.3936 34.3673 41.3002 33.9975 42.2455 33.9945C43.1908 33.9914 44.0999 34.3552 44.7782 35.0081C45.4565 35.661 45.8503 36.5512 45.8753 37.4883C45.7476 37.4569 45.6283 37.3983 45.5258 37.3166C45.4232 37.2349 45.3398 37.132 45.2813 37.0152L44.8854 36.2161C44.8282 36.1022 44.7472 36.0017 44.6479 35.9212C44.5485 35.8407 44.433 35.7821 44.3091 35.7492C44.1851 35.7164 44.0555 35.71 43.9289 35.7306C43.8023 35.7512 43.6816 35.7983 43.5747 35.8687L42.2284 36.76C41.4854 37.2506 40.6126 37.5122 39.7199 37.5119H38.6389ZM49.4984 51.1679C48.9322 51.6103 48.3265 52.0006 47.6888 52.334V50.0685H45.8753V53.3274C44.2221 54.2874 43.4777 54.7939 42.2581 54.7939C41.0385 54.7939 40.5891 54.3875 38.6389 53.3274V50.0685H36.8274V52.3281C36.1893 51.9961 35.5835 51.6064 35.0178 51.1639V50.0861C35.0189 49.5012 35.2114 48.9324 35.5662 48.4652C35.9211 47.9979 36.4192 47.6574 36.9858 47.4947L38.9518 46.9391L41.7097 48.9907C41.8661 49.108 42.057 49.1715 42.2531 49.1715C42.4493 49.1715 42.6402 49.108 42.7966 48.9907L45.5526 46.9391L47.5186 47.4967C48.0874 47.6566 48.5882 47.9957 48.9454 48.4629C49.3026 48.9301 49.4967 49.4999 49.4984 50.0861V51.1679Z" fill="#FF5C39"/>
<path d="M35.023 40.7629H33.2122V42.5573H35.023V40.7629Z" fill="#FF5C39"/>
<path d="M51.3032 40.7629H49.4924V42.5573H51.3032V40.7629Z" fill="#FF5C39"/>
<path d="M23.208 35.4937H11.4497V31.0097C11.4498 30.8172 11.3874 30.6298 11.2718 30.4752C11.1561 30.3205 10.9934 30.2069 10.8077 30.151C10.6219 30.0951 10.4229 30.0999 10.2401 30.1647C10.0573 30.2296 9.90042 30.351 9.79258 30.5111L6.44268 35.4937H3.30858C2.58903 35.4942 1.89913 35.778 1.39051 36.2827C0.881897 36.7874 0.596191 37.4717 0.596191 38.1852L0.596191 50.7399C0.596191 51.4534 0.881897 52.1377 1.39051 52.6424C1.89913 53.1471 2.58903 53.4309 3.30858 53.4314H23.208C23.9276 53.4309 24.6175 53.1471 25.1261 52.6424C25.6347 52.1377 25.9204 51.4534 25.9204 50.7399V38.1852C25.9204 37.4717 25.6347 36.7874 25.1261 36.2827C24.6175 35.778 23.9276 35.4942 23.208 35.4937ZM24.1108 50.7399C24.1108 50.9775 24.0158 51.2054 23.8465 51.3736C23.6773 51.5418 23.4476 51.6366 23.208 51.6371H3.30858C3.06896 51.6366 2.83933 51.5418 2.67008 51.3736C2.50082 51.2054 2.40577 50.9775 2.40577 50.7399V38.1852C2.40551 38.0675 2.42867 37.9509 2.47392 37.842C2.51918 37.7332 2.58564 37.6343 2.6695 37.551C2.75336 37.4676 2.85297 37.4015 2.96263 37.3564C3.0723 37.3113 3.18986 37.2881 3.30858 37.2881H6.9317C7.07988 37.2884 7.2259 37.2528 7.35703 37.1844C7.48816 37.1159 7.60043 37.0167 7.68404 36.8954L9.64409 33.9742V36.3968C9.64461 36.6345 9.7401 36.8624 9.90967 37.0306C10.0792 37.1987 10.3091 37.2934 10.5489 37.2939H23.2199C23.3386 37.2939 23.4562 37.3172 23.5658 37.3623C23.6755 37.4074 23.7751 37.4735 23.859 37.5568C23.9428 37.6402 24.0093 37.7391 24.0546 37.8479C24.0998 37.9568 24.123 38.0734 24.1227 38.1911L24.1108 50.7399Z" fill="#FF5C39"/>
<path d="M52.9414 3.37769H33.044C32.6876 3.37743 32.3347 3.44681 32.0054 3.58185C31.6761 3.7169 31.3768 3.91498 31.1247 4.16475C30.8727 4.41453 30.6727 4.71111 30.5362 5.03756C30.3998 5.364 30.3296 5.7139 30.3296 6.06727V18.6317C30.3296 18.9851 30.3998 19.335 30.5362 19.6614C30.6727 19.9879 30.8727 20.2845 31.1247 20.5343C31.3768 20.784 31.6761 20.9821 32.0054 21.1172C32.3347 21.2522 32.6876 21.3216 33.044 21.3213H44.8023V25.8053C44.8014 25.9979 44.8633 26.1857 44.9787 26.3407C45.094 26.4957 45.2567 26.6096 45.4426 26.6656C45.6285 26.7216 45.8276 26.7167 46.0105 26.6515C46.1933 26.5864 46.35 26.4645 46.4574 26.3039L49.8073 21.3213H52.9414C53.2976 21.3213 53.6503 21.2518 53.9794 21.1166C54.3085 20.9814 54.6075 20.7833 54.8594 20.5336C55.1112 20.2838 55.311 19.9873 55.4473 19.661C55.5836 19.3347 55.6538 18.9849 55.6538 18.6317V6.06727C55.6538 5.35395 55.368 4.66984 54.8594 4.16545C54.3507 3.66105 53.6608 3.37769 52.9414 3.37769ZM53.8541 18.6239C53.8536 18.8617 53.7581 19.0896 53.5885 19.2577C53.419 19.4259 53.1891 19.5205 52.9493 19.5211H49.3242C49.1759 19.52 49.0297 19.5553 48.8984 19.6238C48.7672 19.6923 48.655 19.7919 48.5719 19.9137L46.6099 22.833V20.4163C46.6099 20.2986 46.5864 20.182 46.541 20.0732C46.4955 19.9645 46.4288 19.8657 46.3447 19.7826C46.2607 19.6994 46.1609 19.6335 46.0512 19.5886C45.9414 19.5438 45.8238 19.5208 45.7051 19.5211H33.0341C32.7943 19.5205 32.5644 19.4259 32.3949 19.2577C32.2253 19.0896 32.1298 18.8617 32.1293 18.6239V6.05942C32.1298 5.82163 32.2253 5.59373 32.3949 5.42559C32.5644 5.25744 32.7943 5.16275 33.0341 5.16223H52.9315C53.0524 5.16014 53.1725 5.18204 53.2848 5.22666C53.397 5.27127 53.4991 5.3377 53.5851 5.42203C53.6711 5.50636 53.7391 5.60689 53.7853 5.7177C53.8315 5.82851 53.8549 5.94736 53.8541 6.06727V18.6239Z" fill="#FF5C39"/>
<path d="M20.4936 39.9775H6.02295V41.7719H20.4936V39.9775Z" fill="#FF5C39"/>
<path d="M20.4936 43.5663H6.02295V45.3606H20.4936V43.5663Z" fill="#FF5C39"/>
<path d="M20.4936 47.1531H6.02295V48.9474H20.4936V47.1531Z" fill="#FF5C39"/>
<path d="M43.8987 11.4485H42.0879V13.2429H43.8987V11.4485Z" fill="#FF5C39"/>
<path d="M47.5159 11.4485H45.7051V13.2429H47.5159V11.4485Z" fill="#FF5C39"/>
<path d="M40.2815 11.4485H38.4707V13.2429H40.2815V11.4485Z" fill="#FF5C39"/>
</svg>
